<svg width="23" height="23" viewBox="0 0 23 23" fill="none" xmlns="http://www.w3.org/2000/svg">
<path d="M0.873899 22.2942C0.47971 21.9043 0.47971 21.2722 0.873899 20.8823L20.8587 1.11691C21.2529 0.727044 21.892 0.727044 22.2862 1.11691C22.6804 1.50677 22.6804 2.13886 22.2862 2.52872L2.30138 22.2942C1.90719 22.684 1.26809 22.684 0.873899 22.2942Z" fill="black"/>
<path d="M22.1259 21.8832C21.7317 22.2731 21.0926 22.2731 20.6984 21.8832L0.713581 2.11776C0.319391 1.7279 0.319391 1.09581 0.71358 0.705944C1.10777 0.316081 1.74688 0.316081 2.14107 0.705944L22.1259 20.4714C22.52 20.8612 22.52 21.4933 22.1259 21.8832Z" fill="black"/>
</svg>
