<svg width="122" height="50" viewBox="0 0 122 50" fill="none" xmlns="http://www.w3.org/2000/svg">
<path fill-rule="evenodd" clip-rule="evenodd" d="M0.487568 25.7937C0.168268 24.3234 0 22.7961 0 21.2291C0 9.50458 9.42019 0 21.0406 0C32.661 0 42.0812 9.50458 42.0812 21.2291C42.0812 31.3548 35.0549 39.8248 25.6532 41.9464L17.0378 33.4307C18.2965 33.8508 19.6422 34.0782 21.0406 34.0782C28.074 34.0782 33.7757 28.3255 33.7757 21.2291C33.7757 14.1327 28.074 8.3799 21.0406 8.3799C14.0072 8.3799 8.30549 14.1327 8.30549 21.2291C8.30549 22.8366 8.59809 24.3753 9.13249 25.7937L0.487568 25.7937Z" fill="url(#paint0_linear)"/>
<g filter="url(#filter0_f)">
<path fill-rule="evenodd" clip-rule="evenodd" d="M33.3608 38.2434L27.4445 32.3461L27.5713 32.2197L33.4876 38.1171L33.3608 38.2434Z" fill="black" fill-opacity="0.7"/>
</g>
<path d="M18.1194 25.8388C20.0213 25.8388 21.8453 26.5919 23.1902 27.9325L39.4527 44.1429L30.7301 44.1429C28.8326 44.1429 27.0125 43.3933 25.6684 42.0583L9.33793 25.8388L18.1194 25.8388Z" fill="url(#paint1_linear)"/>
<path d="M56.2261 31.1479C56.2261 30.564 56.327 29.9847 56.5289 29.4099C56.7399 28.826 57.0427 28.3059 57.4372 27.8498C57.8317 27.3936 58.3135 27.0241 58.8823 26.7412C59.4604 26.4493 60.1164 26.3033 60.8504 26.3033C61.7221 26.3033 62.4653 26.504 63.08 26.9055C63.6948 27.2978 64.1535 27.8041 64.4563 28.4246L63.8783 28.753C63.7039 28.4154 63.4975 28.1326 63.2589 27.9045C63.0296 27.6764 62.7772 27.4939 62.502 27.3571C62.2359 27.2111 61.956 27.1062 61.6624 27.0423C61.3688 26.9785 61.0798 26.9465 60.7954 26.9465C60.1714 26.9465 59.6209 27.0743 59.1438 27.3297C58.6667 27.5761 58.263 27.8999 57.9327 28.3014C57.6024 28.7028 57.35 29.159 57.1757 29.6699C57.0106 30.1717 56.928 30.6781 56.928 31.189C56.928 31.7638 57.0289 32.3112 57.2308 32.8312C57.4326 33.3513 57.7079 33.812 58.0565 34.2135C58.4052 34.6058 58.8181 34.9205 59.2952 35.1578C59.7723 35.395 60.2861 35.5136 60.8367 35.5136C61.1303 35.5136 61.4331 35.4771 61.745 35.4041C62.057 35.3311 62.3552 35.2171 62.6396 35.062C62.924 34.9069 63.1901 34.7107 63.4379 34.4735C63.6856 34.2271 63.892 33.9398 64.0572 33.6113L64.6628 33.8987C64.4976 34.2636 64.2728 34.5875 63.9884 34.8704C63.7039 35.1532 63.3874 35.3904 63.0387 35.582C62.6901 35.7736 62.3185 35.9196 61.9239 36.0199C61.5386 36.1112 61.1578 36.1568 60.7816 36.1568C60.1118 36.1568 59.4971 36.0108 58.9374 35.7189C58.3869 35.4269 57.9097 35.0483 57.506 34.583C57.1023 34.1085 56.7858 33.5748 56.5564 32.9818C56.3362 32.3796 56.2261 31.7683 56.2261 31.1479Z" fill="black"/>
<path d="M69.1967 36.2115C68.692 36.2115 68.2241 36.1157 67.7929 35.9241C67.3708 35.7234 67.0038 35.4543 66.6918 35.1167C66.3799 34.7791 66.1367 34.3868 65.9624 33.9398C65.7881 33.4927 65.7009 33.0228 65.7009 32.5302C65.7009 32.0284 65.7881 31.5539 65.9624 31.1069C66.1459 30.6598 66.3936 30.2675 66.7056 29.9299C67.0175 29.5924 67.3846 29.3278 67.8066 29.1362C68.2379 28.9355 68.7012 28.8351 69.1967 28.8351C69.6921 28.8351 70.1509 28.9355 70.573 29.1362C70.995 29.3278 71.362 29.5924 71.674 29.9299C71.9951 30.2675 72.2429 30.6598 72.4172 31.1069C72.6007 31.5539 72.6925 32.0284 72.6925 32.5302C72.6925 33.0228 72.6007 33.4927 72.4172 33.9398C72.2429 34.3868 71.9997 34.7791 71.6878 35.1167C71.3758 35.4543 71.0042 35.7234 70.573 35.9241C70.1509 36.1157 69.6921 36.2115 69.1967 36.2115ZM66.389 32.5575C66.389 32.9772 66.4624 33.3741 66.6092 33.7482C66.756 34.1131 66.9533 34.4324 67.201 34.7061C67.458 34.9798 67.7562 35.1988 68.0956 35.363C68.4351 35.5181 68.7975 35.5957 69.1829 35.5957C69.5683 35.5957 69.9307 35.5181 70.2702 35.363C70.6097 35.1988 70.9079 34.9753 71.1648 34.6925C71.4217 34.4096 71.6235 34.0857 71.7703 33.7208C71.9171 33.3467 71.9905 32.9453 71.9905 32.5165C71.9905 32.0968 71.9171 31.7045 71.7703 31.3395C71.6235 30.9655 71.4217 30.6416 71.1648 30.3679C70.9079 30.085 70.6097 29.8615 70.2702 29.6973C69.9399 29.5331 69.582 29.451 69.1967 29.451C68.8113 29.451 68.4489 29.5331 68.1094 29.6973C67.7699 29.8615 67.4717 30.085 67.2148 30.3679C66.9671 30.6507 66.7652 30.9837 66.6092 31.3669C66.4624 31.741 66.389 32.1378 66.389 32.5575Z" fill="black"/>
<path d="M80.1905 36.0747H79.5023V32.1059C79.5023 31.1844 79.3693 30.5139 79.1032 30.0942C78.8463 29.6745 78.4334 29.4646 77.8645 29.4646C77.5617 29.4646 77.259 29.5194 76.9562 29.6289C76.6626 29.7383 76.3873 29.8934 76.1304 30.0942C75.8735 30.2949 75.6487 30.5321 75.456 30.8058C75.2633 31.0704 75.1211 31.3578 75.0294 31.668V36.0747H74.3412V28.9583H74.9881V30.6553C75.1349 30.3816 75.3138 30.1352 75.5248 29.9163C75.745 29.6882 75.9882 29.4966 76.2543 29.3415C76.5295 29.1772 76.8185 29.0541 77.1213 28.972C77.4241 28.8807 77.7361 28.8351 78.0572 28.8351C78.8371 28.8351 79.3876 29.1088 79.7088 29.6562C80.0299 30.1945 80.1905 30.97 80.1905 31.9827V36.0747Z" fill="black"/>
<path d="M84.5419 36.2115C83.9914 36.2115 83.4638 36.1203 82.9592 35.9378C82.4545 35.7554 82.0141 35.4816 81.6379 35.1167L81.982 34.6514C82.3674 34.9981 82.7665 35.2536 83.1794 35.4178C83.5923 35.582 84.0464 35.6641 84.5419 35.6641C85.1658 35.6641 85.6659 35.5364 86.0421 35.2809C86.4274 35.0163 86.6201 34.6514 86.6201 34.1861C86.6201 33.9671 86.5696 33.7847 86.4687 33.6387C86.377 33.4836 86.2348 33.3558 86.0421 33.2555C85.8494 33.146 85.6108 33.0502 85.3264 32.9681C85.042 32.886 84.7117 32.7993 84.3355 32.7081C83.9318 32.6168 83.5785 32.5256 83.2757 32.4344C82.9821 32.3431 82.739 32.2336 82.5463 32.1059C82.3536 31.9782 82.2068 31.8231 82.1059 31.6406C82.0141 31.4581 81.9682 31.2255 81.9682 30.9427C81.9682 30.5868 82.0371 30.2766 82.1747 30.0121C82.3123 29.7475 82.5004 29.5285 82.739 29.3552C82.9867 29.1818 83.2665 29.0541 83.5785 28.972C83.8996 28.8807 84.2391 28.8351 84.597 28.8351C85.1567 28.8351 85.6521 28.9309 86.0834 29.1225C86.5146 29.305 86.8495 29.5422 87.0881 29.8341L86.7027 30.2036C86.4641 29.9299 86.1522 29.7247 85.7668 29.5878C85.3906 29.451 84.9869 29.3825 84.5557 29.3825C84.2896 29.3825 84.0373 29.4099 83.7987 29.4646C83.5693 29.5194 83.3675 29.6061 83.1931 29.7247C83.0188 29.8433 82.8812 29.9984 82.7803 30.19C82.6793 30.3724 82.6289 30.5914 82.6289 30.8469C82.6289 31.0567 82.661 31.2255 82.7252 31.3532C82.7986 31.481 82.9087 31.5904 83.0555 31.6817C83.2115 31.7729 83.4088 31.855 83.6473 31.928C83.8859 31.9919 84.1703 32.0649 84.5006 32.147C84.9502 32.2565 85.3493 32.3614 85.698 32.4617C86.0467 32.5621 86.3357 32.6853 86.5651 32.8312C86.8036 32.9772 86.9825 33.1506 87.1018 33.3513C87.2303 33.552 87.2945 33.8075 87.2945 34.1177C87.2945 34.7563 87.0422 35.2672 86.5375 35.6504C86.0421 36.0245 85.3769 36.2115 84.5419 36.2115Z" fill="black"/>
<path d="M91.113 36.2115C89.5899 36.2115 88.8283 35.1623 88.8283 33.0639V28.9583H89.5165V32.9681C89.5165 34.7198 90.1174 35.5957 91.3194 35.5957C91.6222 35.5957 91.9158 35.5455 92.2002 35.4451C92.4847 35.3357 92.7507 35.1897 92.9985 35.0072C93.2462 34.8156 93.4618 34.5875 93.6453 34.3229C93.838 34.0584 93.9894 33.7664 94.0995 33.4471V28.9583H94.7877V35.1167C94.7877 35.3448 94.884 35.4588 95.0767 35.4588V36.0747C95.0308 36.0838 94.9895 36.0884 94.9528 36.0884C94.9161 36.0884 94.8886 36.0884 94.8702 36.0884C94.6867 36.0884 94.5216 36.0336 94.3748 35.9241C94.2371 35.8055 94.1683 35.6504 94.1683 35.4588V34.3914C93.8564 34.9662 93.4251 35.4132 92.8746 35.7325C92.3333 36.0519 91.7461 36.2115 91.113 36.2115Z" fill="black"/>
<path d="M97.0298 26.0844H97.7317V34.6651C97.7317 34.9297 97.8052 35.1395 97.952 35.2946C98.1079 35.4497 98.319 35.5273 98.5851 35.5273C98.686 35.5273 98.8053 35.5181 98.9429 35.4999C99.0897 35.4725 99.2227 35.436 99.342 35.3904L99.4796 35.9378C99.3237 36.0017 99.131 36.0519 98.9016 36.0884C98.6722 36.134 98.4749 36.1568 98.3098 36.1568C97.9244 36.1568 97.6125 36.0427 97.3739 35.8147C97.1445 35.5774 97.0298 35.2627 97.0298 34.8704V26.0844Z" fill="black"/>
<path d="M103.729 35.7325C103.693 35.7508 103.629 35.7873 103.537 35.842C103.454 35.8876 103.344 35.9333 103.206 35.9789C103.078 36.0245 102.931 36.0656 102.766 36.102C102.601 36.1385 102.422 36.1568 102.229 36.1568C102.037 36.1568 101.853 36.1294 101.679 36.0747C101.514 36.0199 101.367 35.9378 101.238 35.8283C101.11 35.7189 101.009 35.5866 100.936 35.4315C100.862 35.2764 100.826 35.0939 100.826 34.884V29.5194H99.8208V28.9583H100.826V26.5223H101.514V28.9583H103.179V29.5194H101.514V34.7198C101.514 34.9844 101.605 35.1851 101.789 35.322C101.972 35.4497 102.179 35.5136 102.408 35.5136C102.693 35.5136 102.936 35.468 103.138 35.3767C103.349 35.2764 103.477 35.2125 103.523 35.1851L103.729 35.7325Z" fill="black"/>
<path d="M104.945 36.0747V28.9583H105.633V36.0747H104.945ZM104.945 27.3434V26.0844H105.633V27.3434H104.945Z" fill="black"/>
<path d="M113.644 36.0747H112.955V32.1059C112.955 31.1844 112.822 30.5139 112.556 30.0942C112.299 29.6745 111.886 29.4646 111.318 29.4646C111.015 29.4646 110.712 29.5194 110.409 29.6289C110.116 29.7383 109.84 29.8934 109.583 30.0942C109.327 30.2949 109.102 30.5321 108.909 30.8058C108.716 31.0704 108.574 31.3578 108.482 31.668V36.0747H107.794V28.9583H108.441V30.6553C108.588 30.3816 108.767 30.1352 108.978 29.9163C109.198 29.6882 109.441 29.4966 109.707 29.3415C109.983 29.1772 110.272 29.0541 110.574 28.972C110.877 28.8807 111.189 28.8351 111.51 28.8351C112.29 28.8351 112.841 29.1088 113.162 29.6562C113.483 30.1945 113.644 30.97 113.644 31.9827V36.0747Z" fill="black"/>
<path d="M118.614 36.1842C118.119 36.1842 117.665 36.0838 117.252 35.8831C116.839 35.6732 116.481 35.3995 116.178 35.062C115.885 34.7153 115.651 34.3229 115.476 33.885C115.311 33.4471 115.229 32.9955 115.229 32.5302C115.229 32.0466 115.307 31.5813 115.463 31.1343C115.628 30.6872 115.857 30.2949 116.151 29.9573C116.444 29.6106 116.793 29.3369 117.197 29.1362C117.61 28.9355 118.064 28.8351 118.559 28.8351C119.183 28.8351 119.725 28.9993 120.183 29.3278C120.651 29.6471 121.046 30.0394 121.367 30.5047V28.9583H122V36.2115C122 36.6951 121.908 37.1193 121.725 37.4843C121.541 37.8492 121.293 38.1503 120.982 38.3875C120.679 38.6338 120.321 38.8163 119.908 38.9349C119.504 39.0627 119.078 39.1265 118.628 39.1265C118.215 39.1265 117.844 39.0855 117.513 39.0033C117.183 38.9304 116.889 38.8209 116.632 38.6749C116.385 38.538 116.16 38.3647 115.958 38.1549C115.765 37.9541 115.596 37.7306 115.449 37.4843L115.917 37.1695C116.201 37.6531 116.587 38.0043 117.073 38.2233C117.559 38.4514 118.078 38.5654 118.628 38.5654C118.995 38.5654 119.339 38.5152 119.66 38.4149C119.991 38.3145 120.275 38.164 120.514 37.9633C120.761 37.7717 120.954 37.5299 121.092 37.2379C121.238 36.946 121.312 36.6038 121.312 36.2115V34.6514C121.018 35.1167 120.628 35.4908 120.142 35.7736C119.656 36.0473 119.146 36.1842 118.614 36.1842ZM118.779 35.5957C119.082 35.5957 119.376 35.5409 119.66 35.4315C119.954 35.3129 120.215 35.1623 120.445 34.9798C120.683 34.7974 120.876 34.5921 121.023 34.364C121.179 34.1359 121.275 33.9078 121.312 33.6797V31.3395C121.202 31.0658 121.055 30.8149 120.871 30.5868C120.688 30.3496 120.477 30.1489 120.238 29.9847C120.009 29.8205 119.757 29.6927 119.481 29.6015C119.215 29.5011 118.945 29.451 118.669 29.451C118.238 29.451 117.853 29.5422 117.513 29.7247C117.174 29.9071 116.885 30.1443 116.646 30.4363C116.417 30.7283 116.238 31.0613 116.109 31.4353C115.99 31.8003 115.931 32.1698 115.931 32.5438C115.931 32.9544 116.004 33.3422 116.151 33.7071C116.298 34.072 116.499 34.3959 116.756 34.6788C117.013 34.9616 117.316 35.1851 117.665 35.3494C118.013 35.5136 118.385 35.5957 118.779 35.5957Z" fill="black"/>
<path d="M66.5455 17.3308C66.0354 17.6441 65.4861 17.8921 64.8976 18.0749C64.309 18.2446 63.6812 18.3295 63.0142 18.3295C61.994 18.3295 61.0654 18.1271 60.2283 17.7224C59.4043 17.3177 58.6915 16.789 58.0899 16.1362C57.5013 15.4835 57.0435 14.7328 56.7165 13.8842C56.3896 13.0356 56.2261 12.1674 56.2261 11.2797C56.2261 10.3528 56.3961 9.465 56.7362 8.61641C57.0893 7.76782 57.5667 7.01715 58.1683 6.36439C58.783 5.71163 59.5089 5.19594 60.346 4.81734C61.1831 4.42569 62.0921 4.22986 63.073 4.22986C64.0801 4.22986 64.9956 4.43874 65.8196 4.85651C66.6567 5.26122 67.3695 5.79649 67.9581 6.4623C68.5466 7.12812 69.0044 7.88532 69.3314 8.73391C69.6584 9.5825 69.8219 10.4441 69.8219 11.3188C69.8219 12.2197 69.6584 13.0813 69.3314 13.9038C69.0175 14.7263 68.5728 15.4573 67.9973 16.0971L69.9003 18.2316H67.3499L66.5455 17.3308ZM63.0338 15.9404C63.3869 15.9404 63.7139 15.9012 64.0147 15.8229C64.3286 15.7315 64.6164 15.614 64.8779 15.4704L62.7591 13.0813H65.3095L66.2709 14.1584C66.5324 13.7406 66.7352 13.2837 66.879 12.7876C67.0229 12.2915 67.0949 11.7888 67.0949 11.2797C67.0949 10.6791 66.9968 10.0982 66.8006 9.53681C66.6175 8.97543 66.3493 8.47933 65.9962 8.04851C65.6561 7.61769 65.2311 7.27172 64.721 7.01062C64.224 6.74952 63.6616 6.61896 63.0338 6.61896C62.3798 6.61896 61.7978 6.75604 61.2877 7.0302C60.7776 7.29131 60.3525 7.6438 60.0125 8.08768C59.6724 8.53155 59.4108 9.03418 59.2277 9.59555C59.0577 10.1439 58.9727 10.7052 58.9727 11.2797C58.9727 11.8802 59.0643 12.4612 59.2474 13.0226C59.4305 13.5839 59.6921 14.08 60.0321 14.5108C60.3852 14.9417 60.8103 15.2876 61.3073 15.5487C61.8174 15.8098 62.3929 15.9404 63.0338 15.9404Z" fill="black"/>
<path d="M83.1014 14.6479C83.1014 15.2354 82.9837 15.7511 82.7483 16.195C82.5129 16.6388 82.1859 17.0109 81.7674 17.3112C81.3619 17.6115 80.8845 17.8399 80.3352 17.9966C79.799 18.1533 79.2235 18.2316 78.6088 18.2316H71.8795V4.32777H79.3346C79.8186 4.32777 80.2567 4.43221 80.6491 4.6411C81.0415 4.84998 81.375 5.12414 81.6497 5.46358C81.9243 5.78996 82.1336 6.16856 82.2775 6.59938C82.4344 7.01715 82.5129 7.44144 82.5129 7.87226C82.5129 8.55114 82.3429 9.19084 82.0028 9.79138C81.6627 10.3789 81.1657 10.8162 80.5118 11.1034C81.3096 11.3384 81.9374 11.7627 82.3952 12.3763C82.866 12.9769 83.1014 13.7341 83.1014 14.6479ZM80.3744 14.1388C80.3744 13.8907 80.3287 13.6557 80.2371 13.4338C80.1586 13.1988 80.0475 12.9964 79.9036 12.8267C79.7597 12.657 79.5897 12.5265 79.3935 12.4351C79.1973 12.3306 78.9815 12.2784 78.7461 12.2784H74.5869V15.9404H78.6088C78.8573 15.9404 79.0861 15.8947 79.2954 15.8033C79.5178 15.7119 79.7074 15.5879 79.8644 15.4312C80.0213 15.2615 80.1456 15.0657 80.2371 14.8438C80.3287 14.6218 80.3744 14.3868 80.3744 14.1388ZM74.5869 6.63855V10.1439H78.1968C78.6545 10.1439 79.0404 9.98721 79.3543 9.67389C79.6812 9.36056 79.8447 8.92974 79.8447 8.38142C79.8447 7.84615 79.6943 7.42186 79.3935 7.10853C79.1058 6.79521 78.7461 6.63855 78.3145 6.63855H74.5869Z" fill="black"/>
<defs>
<filter id="filter0_f" x="7.44434" y="12.2197" width="46.0431" height="46.0237" filterUnits="userSpaceOnUse" color-interpolation-filters="sRGB">
<feFlood flood-opacity="0" result="BackgroundImageFix"/>
<feBlend mode="normal" in="SourceGraphic" in2="BackgroundImageFix" result="shape"/>
<feGaussianBlur stdDeviation="10" result="effect1_foregroundBlur"/>
</filter>
<linearGradient id="paint0_linear" x1="-0.0400192" y1="21.2291" x2="42.0411" y2="21.2291" gradientUnits="userSpaceOnUse">
<stop stop-color="#42A9F4"/>
<stop offset="1" stop-color="#9670FF"/>
</linearGradient>
<linearGradient id="paint1_linear" x1="12.2528" y1="22.8873" x2="36.4139" y2="47.126" gradientUnits="userSpaceOnUse">
<stop stop-color="#42A9F4"/>
<stop offset="1" stop-color="#9670FF"/>
</linearGradient>
</defs>
</svg>
