<svg width="32" height="32" viewBox="0 0 32 32" fill="none" xmlns="http://www.w3.org/2000/svg">
<path d="M23 1H9C7.89543 1 7 1.89543 7 3V29C7 30.1046 7.89543 31 9 31H23C24.1046 31 25 30.1046 25 29V3C25 1.89543 24.1046 1 23 1Z" stroke="white" stroke-width="2" stroke-linecap="round" stroke-linejoin="round"/>
<path d="M15 27H17" stroke="white" stroke-width="2" stroke-linecap="round" stroke-linejoin="round"/>
<path d="M20 1V2C20 2.53043 19.7893 3.03914 19.4142 3.41421C19.0391 3.78929 18.5304 4 18 4H14C13.4696 4 12.9609 3.78929 12.5858 3.41421C12.2107 3.03914 12 2.53043 12 2V1" stroke="white" stroke-width="2" stroke-linecap="round" stroke-linejoin="round"/>
<path d="M31 7L28 10L31 13L28 16L31 19L28 22L31 25" stroke="white" stroke-width="2" stroke-linecap="round" stroke-linejoin="round"/>
<path d="M1 25L4 22L1 19L4 16L1 13L4 10L1 7" stroke="white" stroke-width="2" stroke-linecap="round" stroke-linejoin="round"/>
</svg>
