<svg width="36" height="36" viewBox="0 0 36 36" fill="none" xmlns="http://www.w3.org/2000/svg">
<path d="M10.3773 33.2956H3.30787C2.99493 33.2956 2.69481 33.1712 2.47352 32.95C2.25224 32.7287 2.12793 32.4286 2.12793 32.1156V22.5188C2.12793 22.2059 2.25224 21.9057 2.47352 21.6845C2.69481 21.4632 2.99493 21.3389 3.30787 21.3389H10.3773C10.6902 21.3389 10.9903 21.4632 11.2116 21.6845C11.4329 21.9057 11.5572 22.2059 11.5572 22.5188V32.1156C11.5572 32.4286 11.4329 32.7287 11.2116 32.95C10.9903 33.1712 10.6902 33.2956 10.3773 33.2956ZM4.4878 30.9357H9.19732V23.6987H4.4878V30.9357Z" fill="white"/>
<path d="M21.474 33.2949H14.4045C14.0916 33.2949 13.7915 33.1705 13.5702 32.9493C13.3489 32.728 13.2246 32.4279 13.2246 32.1149V18.3577C13.2246 18.0447 13.3489 17.7446 13.5702 17.5233C13.7915 17.302 14.0916 17.1777 14.4045 17.1777H21.474C21.7869 17.1777 22.087 17.302 22.3083 17.5233C22.5296 17.7446 22.6539 18.0447 22.6539 18.3577V32.1149C22.6539 32.4279 22.5296 32.728 22.3083 32.9493C22.087 33.1705 21.7869 33.2949 21.474 33.2949ZM15.5845 30.935H20.294V19.5376H15.5845V30.935Z" fill="white"/>
<path d="M32.5703 33.2957H25.5017C25.1888 33.2957 24.8887 33.1714 24.6674 32.9501C24.4461 32.7288 24.3218 32.4287 24.3218 32.1157V13.6096C24.3218 13.2967 24.4461 12.9966 24.6674 12.7753C24.8887 12.554 25.1888 12.4297 25.5017 12.4297H32.5703C32.8833 12.4297 33.1834 12.554 33.4047 12.7753C33.6259 12.9966 33.7503 13.2967 33.7503 13.6096V32.1157C33.7503 32.4287 33.6259 32.7288 33.4047 32.9501C33.1834 33.1714 32.8833 33.2957 32.5703 33.2957ZM26.6816 30.9358H31.3904V14.7896H26.6816V30.9358Z" fill="white"/>
<path d="M7.50951 5.57436C7.71141 5.57449 7.9099 5.62643 8.08598 5.7252C8.26207 5.82397 8.40987 5.96628 8.51523 6.1385C8.6206 6.31072 8.68002 6.50709 8.6878 6.70884C8.69557 6.91059 8.65146 7.11095 8.55966 7.29077L7.23341 9.8945L9.83636 11.22C9.97469 11.2901 10.0978 11.3869 10.1987 11.5048C10.2996 11.6226 10.3763 11.7591 10.4244 11.9066C10.4724 12.0541 10.4909 12.2096 10.4788 12.3643C10.4667 12.5189 10.4242 12.6697 10.3538 12.8079C10.2834 12.9461 10.1864 13.0691 10.0684 13.1698C9.95039 13.2705 9.81369 13.3469 9.66612 13.3947C9.51855 13.4425 9.36299 13.4608 9.20836 13.4484C9.05373 13.436 8.90306 13.3933 8.76497 13.3226L5.1103 11.4607C4.83164 11.3185 4.62084 11.0715 4.52422 10.774C4.4276 10.4765 4.45308 10.1528 4.59506 9.87405L6.45701 6.21939C6.55578 6.02518 6.7064 5.86211 6.89218 5.74826C7.07795 5.63441 7.29163 5.57422 7.50951 5.57436Z" fill="white"/>
<path d="M27.506 2.12725C27.7871 2.12711 28.059 2.22732 28.2728 2.40984C28.4865 2.59236 28.6281 2.84519 28.672 3.12283C28.7159 3.40047 28.6593 3.68466 28.5123 3.92425C28.3653 4.16384 28.1376 4.34308 27.8702 4.4297L6.38435 11.411C6.08781 11.5038 5.76664 11.4759 5.49056 11.3333C5.21447 11.1907 5.00577 10.945 4.90975 10.6495C4.81373 10.354 4.83816 10.0326 4.97771 9.75494C5.11727 9.47733 5.3607 9.26597 5.65515 9.16675L27.141 2.18624C27.2588 2.14752 27.382 2.12761 27.506 2.12725Z" fill="white"/>
</svg>
