<svg width="36" height="36" viewBox="0 0 36 36" fill="none" xmlns="http://www.w3.org/2000/svg">
<path d="M10.3773 33.2946H3.30787C2.99493 33.2946 2.69481 33.1703 2.47352 32.949C2.25224 32.7277 2.12793 32.4276 2.12793 32.1146V22.5178C2.12793 22.2049 2.25224 21.9048 2.47352 21.6835C2.69481 21.4622 2.99493 21.3379 3.30787 21.3379H10.3773C10.6902 21.3379 10.9903 21.4622 11.2116 21.6835C11.4329 21.9048 11.5572 22.2049 11.5572 22.5178V32.1146C11.5572 32.4276 11.4329 32.7277 11.2116 32.949C10.9903 33.1703 10.6902 33.2946 10.3773 33.2946ZM4.4878 30.9347H9.19732V23.6978H4.4878V30.9347Z" fill="url(#paint0_linear)"/>
<path d="M21.474 33.2949H14.4045C14.0916 33.2949 13.7915 33.1705 13.5702 32.9493C13.3489 32.728 13.2246 32.4279 13.2246 32.1149V18.3577C13.2246 18.0447 13.3489 17.7446 13.5702 17.5233C13.7915 17.302 14.0916 17.1777 14.4045 17.1777H21.474C21.7869 17.1777 22.087 17.302 22.3083 17.5233C22.5296 17.7446 22.6539 18.0447 22.6539 18.3577V32.1149C22.6539 32.4279 22.5296 32.728 22.3083 32.9493C22.087 33.1705 21.7869 33.2949 21.474 33.2949ZM15.5845 30.935H20.294V19.5376H15.5845V30.935Z" fill="url(#paint1_linear)"/>
<path d="M32.5703 33.2947H25.5017C25.1888 33.2947 24.8887 33.1704 24.6674 32.9491C24.4461 32.7278 24.3218 32.4277 24.3218 32.1148V13.6086C24.3218 13.2957 24.4461 12.9956 24.6674 12.7743C24.8887 12.553 25.1888 12.4287 25.5017 12.4287H32.5703C32.8833 12.4287 33.1834 12.553 33.4047 12.7743C33.6259 12.9956 33.7503 13.2957 33.7503 13.6086V32.1148C33.7503 32.4277 33.6259 32.7278 33.4047 32.9491C33.1834 33.1704 32.8833 33.2947 32.5703 33.2947ZM26.6816 30.9348H31.3904V14.7886H26.6816V30.9348Z" fill="url(#paint2_linear)"/>
<path d="M7.50951 5.57387C7.71141 5.57401 7.9099 5.62594 8.08598 5.72472C8.26207 5.82349 8.40987 5.96579 8.51523 6.13801C8.6206 6.31023 8.68002 6.5066 8.6878 6.70835C8.69557 6.9101 8.65146 7.11046 8.55966 7.29029L7.23341 9.89401L9.83636 11.2195C9.97469 11.2897 10.0978 11.3864 10.1987 11.5043C10.2996 11.6221 10.3763 11.7587 10.4244 11.9061C10.4724 12.0536 10.4909 12.2092 10.4788 12.3638C10.4667 12.5185 10.4242 12.6692 10.3538 12.8074C10.2834 12.9456 10.1864 13.0686 10.0684 13.1693C9.95039 13.27 9.81369 13.3464 9.66612 13.3942C9.51855 13.442 9.36299 13.4603 9.20836 13.4479C9.05373 13.4355 8.90306 13.3928 8.76497 13.3221L5.1103 11.4602C4.83164 11.318 4.62084 11.0711 4.52422 10.7735C4.4276 10.476 4.45308 10.1523 4.59506 9.87356L6.45701 6.2189C6.55578 6.02469 6.7064 5.86163 6.89218 5.74777C7.07795 5.63392 7.29163 5.57373 7.50951 5.57387Z" fill="url(#paint3_linear)"/>
<path d="M27.506 2.12627C27.7871 2.12613 28.059 2.22634 28.2728 2.40886C28.4865 2.59138 28.6281 2.84422 28.672 3.12185C28.7159 3.39949 28.6593 3.68369 28.5123 3.92327C28.3653 4.16286 28.1376 4.3421 27.8702 4.42872L6.38435 11.41C6.08781 11.5028 5.76664 11.4749 5.49056 11.3323C5.21447 11.1898 5.00577 10.9441 4.90975 10.6485C4.81373 10.353 4.83816 10.0316 4.97771 9.75397C5.11727 9.47635 5.3607 9.26499 5.65515 9.16577L27.141 2.18527C27.2588 2.14654 27.382 2.12663 27.506 2.12627Z" fill="url(#paint4_linear)"/>
<defs>
<linearGradient id="paint0_linear" x1="6.84256" y1="21.3379" x2="6.84256" y2="33.2946" gradientUnits="userSpaceOnUse">
<stop stop-color="#42A9F4"/>
<stop offset="1" stop-color="#9670FF"/>
</linearGradient>
<linearGradient id="paint1_linear" x1="17.9393" y1="17.1777" x2="17.9393" y2="33.2949" gradientUnits="userSpaceOnUse">
<stop stop-color="#42A9F4"/>
<stop offset="1" stop-color="#9670FF"/>
</linearGradient>
<linearGradient id="paint2_linear" x1="29.036" y1="12.4287" x2="29.036" y2="33.2947" gradientUnits="userSpaceOnUse">
<stop stop-color="#42A9F4"/>
<stop offset="1" stop-color="#9670FF"/>
</linearGradient>
<linearGradient id="paint3_linear" x1="7.47447" y1="13.4517" x2="7.47448" y2="5.57387" gradientUnits="userSpaceOnUse">
<stop stop-color="#42A9F4"/>
<stop offset="1" stop-color="#9670FF"/>
</linearGradient>
<linearGradient id="paint4_linear" x1="16.7693" y1="11.4639" x2="16.7693" y2="2.12627" gradientUnits="userSpaceOnUse">
<stop stop-color="#42A9F4"/>
<stop offset="1" stop-color="#9670FF"/>
</linearGradient>
</defs>
</svg>
