<svg width="100" height="100" viewBox="0 0 100 100" fill="none" xmlns="http://www.w3.org/2000/svg">
<g opacity="0.08">
<path d="M28.8259 92.4865H9.18873C8.31946 92.4865 7.48579 92.1411 6.87112 91.5265C6.25645 90.9118 5.91113 90.0781 5.91113 89.2089V62.551C5.91113 61.6818 6.25645 60.8481 6.87112 60.2334C7.48579 59.6188 8.31946 59.2734 9.18873 59.2734H28.8259C29.6952 59.2734 30.5289 59.6188 31.1435 60.2334C31.7582 60.8481 32.1035 61.6818 32.1035 62.551V89.2089C32.1035 90.0781 31.7582 90.9118 31.1435 91.5265C30.5289 92.1411 29.6952 92.4865 28.8259 92.4865ZM12.4663 85.9313H25.5483V65.8286H12.4663V85.9313Z" fill="white"/>
<path d="M59.6502 92.4856H40.013C39.1437 92.4856 38.31 92.1403 37.6953 91.5256C37.0807 90.9109 36.7354 90.0773 36.7354 89.208V50.9934C36.7354 50.1241 37.0807 49.2905 37.6953 48.6758C38.31 48.0611 39.1437 47.7158 40.013 47.7158H59.6502C60.5195 47.7158 61.3531 48.0611 61.9678 48.6758C62.5825 49.2905 62.9278 50.1241 62.9278 50.9934V89.208C62.9278 90.0773 62.5825 90.9109 61.9678 91.5256C61.3531 92.1403 60.5195 92.4856 59.6502 92.4856ZM43.2906 85.9304H56.3726V54.271H43.2906V85.9304Z" fill="white"/>
<path d="M90.4732 92.4875H70.8381C69.9689 92.4875 69.1352 92.1421 68.5205 91.5275C67.9059 90.9128 67.5605 90.0791 67.5605 89.2099V37.804C67.5605 36.9347 67.9059 36.101 68.5205 35.4864C69.1352 34.8717 69.9689 34.5264 70.8381 34.5264H90.4732C91.3424 34.5264 92.1761 34.8717 92.7908 35.4864C93.4054 36.101 93.7508 36.9347 93.7508 37.804V89.2099C93.7508 90.0791 93.4054 90.9128 92.7908 91.5275C92.1761 92.1421 91.3424 92.4875 90.4732 92.4875ZM74.1157 85.9323H87.1956V41.0816H74.1157V85.9323Z" fill="white"/>
<path d="M20.8601 15.4835C21.4209 15.4838 21.9723 15.6281 22.4614 15.9025C22.9505 16.1768 23.3611 16.5721 23.6538 17.0505C23.9464 17.5289 24.1115 18.0744 24.1331 18.6348C24.1547 19.1952 24.0321 19.7518 23.7772 20.2513L20.0931 27.4839L27.3235 31.1657C27.7078 31.3607 28.0499 31.6295 28.3301 31.9568C28.6104 32.2841 28.8234 32.6634 28.9569 33.0731C29.0904 33.4828 29.1418 33.9148 29.1082 34.3444C29.0745 34.774 28.9565 35.1927 28.7609 35.5766C28.5653 35.9606 28.2959 36.3022 27.9681 36.5819C27.6403 36.8616 27.2606 37.0739 26.8507 37.2067C26.4407 37.3395 26.0086 37.3901 25.5791 37.3558C25.1496 37.3214 24.7311 37.2027 24.3475 37.0064L14.1956 31.8343C13.4216 31.4395 12.836 30.7534 12.5676 29.927C12.2992 29.1005 12.37 28.2013 12.7644 27.427L17.9365 17.2752C18.2108 16.7357 18.6292 16.2828 19.1453 15.9665C19.6613 15.6503 20.2548 15.4831 20.8601 15.4835Z" fill="white"/>
<path d="M76.4058 5.90794C77.1866 5.90754 77.9419 6.18591 78.5357 6.69291C79.1295 7.1999 79.5228 7.90223 79.6448 8.67344C79.7668 9.44466 79.6095 10.2341 79.2011 10.8996C78.7928 11.5651 78.1603 12.063 77.4175 12.3036L17.7346 31.6961C16.9109 31.9539 16.0187 31.8763 15.2518 31.4803C14.4849 31.0843 13.9052 30.4018 13.6385 29.5809C13.3718 28.7601 13.4396 27.8671 13.8272 27.096C14.2149 26.3248 14.8911 25.7377 15.709 25.4621L75.3919 6.07182C75.7192 5.96425 76.0613 5.90894 76.4058 5.90794Z" fill="white"/>
</g>
</svg>
