<svg width="21" height="21" viewBox="0 0 21 21" fill="none" xmlns="http://www.w3.org/2000/svg">
<g opacity="0.2" clip-path="url(#clip0)">
<path d="M17.927 3.07114C13.8295 -1.02632 7.1686 -1.02632 3.07114 3.07114C-1.02632 7.1686 -1.02632 13.8336 3.07114 17.927C5.11782 19.9737 7.80845 20.9991 10.4991 20.9991C13.1897 20.9991 15.8803 19.9737 17.927 17.927C22.0245 13.8295 22.0245 7.1686 17.927 3.07114ZM17.2215 17.2215C13.5137 20.9293 7.48442 20.9252 3.78071 17.2215C0.0729003 13.5137 0.0729003 7.48442 3.78071 3.78071C5.63052 1.92681 8.06684 0.999853 10.4991 0.999853C12.9313 0.999853 15.3676 1.92681 17.2215 3.78071C20.9252 7.48442 20.9252 13.5137 17.2215 17.2215Z" fill="black"/>
<path d="M10.5002 4.49512C8.94981 4.49512 7.68652 5.7584 7.68652 7.30879C7.68652 7.58359 7.91211 7.80918 8.18691 7.80918C8.46172 7.80918 8.68731 7.58359 8.68731 7.30879C8.68731 6.30801 9.50352 5.4959 10.5043 5.4959C11.5051 5.4959 12.3172 6.31211 12.3172 7.30879V7.52207C12.3172 8.20293 11.9439 8.82227 11.3369 9.13398C10.5125 9.56055 10.0039 10.4629 10.0039 11.4883V11.6195C10.0039 11.8943 10.2295 12.1199 10.5043 12.1199C10.7791 12.1199 11.0047 11.8943 11.0047 11.6195V11.4883C11.0047 10.8484 11.3164 10.2701 11.8004 10.0199C12.7396 9.53594 13.3221 8.57617 13.3221 7.51797V7.30469C13.3139 5.7584 12.0506 4.49512 10.5002 4.49512Z" fill="black"/>
<path d="M10.4999 14.1255C10.2251 14.1255 9.99951 14.3511 9.99951 14.6259V15.9999C9.99951 16.2747 10.2251 16.5003 10.4999 16.5003C10.7747 16.5003 11.0003 16.2747 11.0003 15.9999V14.6259C11.0003 14.3511 10.7747 14.1255 10.4999 14.1255Z" fill="black"/>
</g>
<defs>
<clipPath id="clip0">
<rect width="21" height="21" fill="white"/>
</clipPath>
</defs>
</svg>
