<svg width="36" height="36" viewBox="0 0 36 36" fill="none" xmlns="http://www.w3.org/2000/svg">
<path d="M18 11.25V13.5" stroke="white" stroke-width="2" stroke-linecap="round" stroke-linejoin="round"/>
<path d="M18 22.5V24.75" stroke="white" stroke-width="2" stroke-linecap="round" stroke-linejoin="round"/>
<path d="M15.75 22.5H19.125C20.3625 22.5 21.375 21.4875 21.375 20.25C21.375 19.0125 20.3625 18 19.125 18H16.875C15.6375 18 14.625 16.9875 14.625 15.75C14.625 14.5125 15.6375 13.5 16.875 13.5H20.25" stroke="white" stroke-width="2" stroke-linecap="round" stroke-linejoin="round"/>
<path d="M18 6.75C24.1875 6.75 29.25 11.8125 29.25 18C29.25 24.1875 24.1875 29.25 18 29.25C11.8125 29.25 6.75 24.1875 6.75 18V14.625" stroke="white" stroke-width="2" stroke-linecap="round" stroke-linejoin="round"/>
<path d="M11.25 19.125L6.75 14.625L2.25 19.125" stroke="white" stroke-width="2" stroke-linecap="round" stroke-linejoin="round"/>
<path d="M18 2.25C26.6625 2.25 33.75 9.3375 33.75 18C33.75 26.6625 26.6625 33.75 18 33.75" stroke="white" stroke-width="2" stroke-linecap="round" stroke-linejoin="round"/>
</svg>
