<svg width="100" height="100" viewBox="0 0 100 100" fill="none" xmlns="http://www.w3.org/2000/svg">
<g opacity="0.08">
<path fill-rule="evenodd" clip-rule="evenodd" d="M49.9999 28.4717C51.5341 28.4717 52.7777 29.7153 52.7777 31.2495V37.4995C52.7777 39.0336 51.5341 40.2772 49.9999 40.2772C48.4658 40.2772 47.2222 39.0336 47.2222 37.4995V31.2495C47.2222 29.7153 48.4658 28.4717 49.9999 28.4717Z" fill="white"/>
<path fill-rule="evenodd" clip-rule="evenodd" d="M49.9999 59.7217C51.5341 59.7217 52.7777 60.9653 52.7777 62.4995V68.7495C52.7777 70.2836 51.5341 71.5272 49.9999 71.5272C48.4658 71.5272 47.2222 70.2836 47.2222 68.7495V62.4995C47.2222 60.9653 48.4658 59.7217 49.9999 59.7217Z" fill="white"/>
<path fill-rule="evenodd" clip-rule="evenodd" d="M46.8749 40.2772C44.9716 40.2772 43.4027 41.8461 43.4027 43.7495C43.4027 45.6528 44.9716 47.2217 46.8749 47.2217H53.1249C58.0966 47.2217 62.1527 51.2778 62.1527 56.2495C62.1527 61.2211 58.0966 65.2772 53.1249 65.2772H43.7499C42.2158 65.2772 40.9722 64.0336 40.9722 62.4995C40.9722 60.9653 42.2158 59.7217 43.7499 59.7217H53.1249C55.0283 59.7217 56.5972 58.1528 56.5972 56.2495C56.5972 54.3461 55.0283 52.7772 53.1249 52.7772H46.8749C41.9033 52.7772 37.8472 48.7211 37.8472 43.7495C37.8472 38.7778 41.9033 34.7217 46.8749 34.7217H56.2499C57.7841 34.7217 59.0277 35.9653 59.0277 37.4995C59.0277 39.0336 57.7841 40.2772 56.2499 40.2772H46.8749Z" fill="white"/>
<path fill-rule="evenodd" clip-rule="evenodd" d="M47.2222 18.7495C47.2222 17.2153 48.4658 15.9717 49.9999 15.9717C68.7216 15.9717 84.0277 31.2778 84.0277 49.9995C84.0277 68.7211 68.7216 84.0272 49.9999 84.0272C31.2783 84.0272 15.9722 68.7211 15.9722 49.9995V40.6245C15.9722 39.0903 17.2158 37.8467 18.7499 37.8467C20.2841 37.8467 21.5277 39.0903 21.5277 40.6245V49.9995C21.5277 65.6528 34.3466 78.4717 49.9999 78.4717C65.6533 78.4717 78.4722 65.6528 78.4722 49.9995C78.4722 34.3461 65.6533 21.5272 49.9999 21.5272C48.4658 21.5272 47.2222 20.2836 47.2222 18.7495Z" fill="white"/>
<path fill-rule="evenodd" clip-rule="evenodd" d="M16.7858 38.6603C17.8705 37.5755 19.6293 37.5755 20.7141 38.6603L33.2141 51.1603C34.2989 52.2451 34.2989 54.0039 33.2141 55.0886C32.1293 56.1734 30.3705 56.1734 29.2858 55.0886L18.7499 44.5528L8.21413 55.0886C7.12934 56.1734 5.37055 56.1734 4.28576 55.0886C3.20097 54.0039 3.20097 52.2451 4.28576 51.1603L16.7858 38.6603Z" fill="white"/>
<path fill-rule="evenodd" clip-rule="evenodd" d="M47.2222 6.24946C47.2222 4.71533 48.4658 3.47168 49.9999 3.47168C75.5966 3.47168 96.5277 24.4028 96.5277 49.9995C96.5277 75.5961 75.5966 96.5272 49.9999 96.5272C48.4658 96.5272 47.2222 95.2836 47.2222 93.7495C47.2222 92.2153 48.4658 90.9717 49.9999 90.9717C72.5283 90.9717 90.9722 72.5278 90.9722 49.9995C90.9722 27.4711 72.5283 9.02724 49.9999 9.02724C48.4658 9.02724 47.2222 7.78358 47.2222 6.24946Z" fill="white"/>
</g>
</svg>
