<svg width="100" height="100" viewBox="0 0 100 100" fill="none" xmlns="http://www.w3.org/2000/svg">
<g opacity="0.08">
<path fill-rule="evenodd" clip-rule="evenodd" d="M15.4913 2.99183C17.1844 1.29879 19.4806 0.347656 21.8749 0.347656H78.1249C80.5193 0.347656 82.8155 1.2988 84.5085 2.99183C86.2016 4.68487 87.1527 6.98112 87.1527 9.37543V15.6254C87.1527 17.1596 85.9091 18.4032 84.3749 18.4032C82.8408 18.4032 81.5972 17.1596 81.5972 15.6254V9.37543C81.5972 8.45455 81.2313 7.57137 80.5802 6.9202C79.929 6.26903 79.0458 5.90321 78.1249 5.90321H21.8749C20.9541 5.90321 20.0709 6.26903 19.4197 6.9202C18.7685 7.57137 18.4027 8.45454 18.4027 9.37543V90.6254C18.4027 91.5463 18.7685 92.4295 19.4197 93.0807C20.0709 93.7318 20.9541 94.0977 21.8749 94.0977H78.1249C79.0458 94.0977 79.929 93.7318 80.5802 93.0807C81.2313 92.4295 81.5972 91.5463 81.5972 90.6254V59.3754C81.5972 57.8413 82.8408 56.5977 84.3749 56.5977C85.9091 56.5977 87.1527 57.8413 87.1527 59.3754V90.6254C87.1527 93.0198 86.2016 95.316 84.5085 97.009C82.8155 98.7021 80.5193 99.6532 78.1249 99.6532H21.8749C19.4806 99.6532 17.1844 98.7021 15.4913 97.009C13.7983 95.316 12.8472 93.0198 12.8472 90.6254V9.37543C12.8472 6.98112 13.7983 4.68487 15.4913 2.99183Z" fill="white"/>
<path fill-rule="evenodd" clip-rule="evenodd" d="M40.9722 84.3754C40.9722 82.8413 42.2158 81.5977 43.7499 81.5977H56.2499C57.7841 81.5977 59.0277 82.8413 59.0277 84.3754C59.0277 85.9096 57.7841 87.1532 56.2499 87.1532H43.7499C42.2158 87.1532 40.9722 85.9096 40.9722 84.3754Z" fill="white"/>
<path fill-rule="evenodd" clip-rule="evenodd" d="M85.5358 23.0362C86.6206 21.9515 88.3794 21.9515 89.4642 23.0362L98.8392 32.4112C99.924 33.496 99.924 35.2548 98.8392 36.3396L73.0579 62.1209C72.6701 62.5087 72.1763 62.773 71.6385 62.8805L59.9198 65.2243C59.009 65.4064 58.0675 65.1214 57.4108 64.4646C56.7541 63.8079 56.469 62.8664 56.6512 61.9557L58.9949 50.2369C59.1025 49.6992 59.3668 49.2053 59.7546 48.8175L85.5358 23.0362ZM64.2776 52.1512L62.916 58.9594L69.7243 57.5978L92.9466 34.3754L87.5 28.9288L64.2776 52.1512Z" fill="white"/>
<path fill-rule="evenodd" clip-rule="evenodd" d="M25.3472 62.5004C25.3472 60.9663 26.5908 59.7227 28.1249 59.7227H49.9999C51.5341 59.7227 52.7777 60.9663 52.7777 62.5004C52.7777 64.0346 51.5341 65.2782 49.9999 65.2782H28.1249C26.5908 65.2782 25.3472 64.0346 25.3472 62.5004Z" fill="white"/>
<path fill-rule="evenodd" clip-rule="evenodd" d="M25.3472 50.0004C25.3472 48.4663 26.5908 47.2227 28.1249 47.2227H53.1249C54.6591 47.2227 55.9027 48.4663 55.9027 50.0004C55.9027 51.5346 54.6591 52.7782 53.1249 52.7782H28.1249C26.5908 52.7782 25.3472 51.5346 25.3472 50.0004Z" fill="white"/>
<path fill-rule="evenodd" clip-rule="evenodd" d="M25.3472 37.5004C25.3472 35.9663 26.5908 34.7227 28.1249 34.7227H59.3749C60.9091 34.7227 62.1527 35.9663 62.1527 37.5004C62.1527 39.0346 60.9091 40.2782 59.3749 40.2782H28.1249C26.5908 40.2782 25.3472 39.0346 25.3472 37.5004Z" fill="white"/>
</g>
</svg>
