<svg width="36" height="36" viewBox="0 0 36 36" fill="none" xmlns="http://www.w3.org/2000/svg">
<path d="M30.375 5.625V3.375C30.375 2.77826 30.1379 2.20597 29.716 1.78401C29.294 1.36205 28.7217 1.125 28.125 1.125H7.875C7.27826 1.125 6.70597 1.36205 6.28401 1.78401C5.86205 2.20597 5.625 2.77826 5.625 3.375V32.625C5.625 33.2217 5.86205 33.794 6.28401 34.216C6.70597 34.6379 7.27826 34.875 7.875 34.875H28.125C28.7217 34.875 29.294 34.6379 29.716 34.216C30.1379 33.794 30.375 33.2217 30.375 32.625V21.375" stroke="white" stroke-width="2" stroke-linecap="round" stroke-linejoin="round"/>
<path d="M15.75 30.375H20.25" stroke="white" stroke-width="2" stroke-linecap="round" stroke-linejoin="round"/>
<path d="M25.5938 21.6562L21.375 22.5L22.2188 18.2812L31.5 9L34.875 12.375L25.5938 21.6562Z" stroke="white" stroke-width="2" stroke-linecap="round" stroke-linejoin="round"/>
<path d="M18 22.5H10.125" stroke="white" stroke-width="2" stroke-linecap="round" stroke-linejoin="round"/>
<path d="M10.125 18H19.125" stroke="white" stroke-width="2" stroke-linecap="round" stroke-linejoin="round"/>
<path d="M10.125 13.5H21.375" stroke="white" stroke-width="2" stroke-linecap="round" stroke-linejoin="round"/>
</svg>
