<svg width="36" height="36" viewBox="0 0 36 36" fill="none" xmlns="http://www.w3.org/2000/svg">
<path d="M16.972 2.34942C16.6356 2.34936 16.3011 2.40042 15.9801 2.50087C14.6004 2.93172 13.7183 4.13947 13.7319 5.57665C13.744 6.8904 13.4934 8.03757 12.9876 8.98409C12.3674 10.1449 11.3346 11.0384 9.91711 11.6404C9.77944 11.6986 9.6546 11.7835 9.5497 11.89C9.44481 11.9965 9.36192 12.1226 9.30578 12.2612C9.24963 12.3997 9.22133 12.548 9.22248 12.6975C9.22363 12.847 9.25421 12.9948 9.31248 13.1324C9.37075 13.2701 9.45557 13.395 9.56209 13.4999C9.66861 13.6048 9.79475 13.6876 9.9333 13.7438C10.0719 13.7999 10.2201 13.8282 10.3696 13.8271C10.5191 13.8259 10.6669 13.7953 10.8046 13.7371C14.2423 12.2787 16.0399 9.45128 16.0028 5.55923C16.0037 5.36195 16.0673 5.17006 16.1845 5.01133C16.3016 4.8526 16.4662 4.73524 16.6545 4.67623C16.8427 4.61721 17.0449 4.6196 17.2317 4.68305C17.4185 4.7465 17.5803 4.86772 17.6936 5.02918C19.8396 8.1875 17.9564 11.6646 17.9375 11.6994C17.8417 11.8723 17.7926 12.0673 17.7952 12.2649C17.7979 12.4626 17.852 12.6561 17.9523 12.8265C18.0527 12.9968 18.1957 13.138 18.3674 13.236C18.539 13.3341 18.7332 13.3857 18.9309 13.3857H29.656C29.9366 13.3932 30.2031 13.5098 30.3989 13.7109C30.5947 13.9119 30.7042 14.1815 30.7042 14.4621C30.7042 14.7427 30.5947 15.0123 30.3989 15.2133C30.2031 15.4144 29.9366 15.531 29.656 15.5385H28.1075C27.8063 15.5385 27.5174 15.6581 27.3044 15.8711C27.0914 16.0842 26.9717 16.3731 26.9717 16.6743C26.9717 16.9755 27.0914 17.2644 27.3044 17.4774C27.5174 17.6904 27.8063 17.8101 28.1075 17.8101C28.2489 17.81 28.3888 17.8378 28.5194 17.8918C28.65 17.9458 28.7687 18.0251 28.8686 18.125C28.9685 18.225 29.0478 18.3436 29.1018 18.4742C29.1559 18.6048 29.1836 18.7448 29.1835 18.8861C29.1831 19.1713 29.0696 19.4448 28.8679 19.6465C28.6662 19.8482 28.3928 19.9617 28.1075 19.9621H26.5598C26.2586 19.9621 25.9697 20.0818 25.7567 20.2948C25.5436 20.5078 25.424 20.7967 25.424 21.0979C25.424 21.3991 25.5436 21.688 25.7567 21.901C25.9697 22.114 26.2586 22.2337 26.5598 22.2337C26.8452 22.2337 27.1188 22.3471 27.3206 22.5489C27.5224 22.7507 27.6358 23.0243 27.6358 23.3097C27.6358 23.5951 27.5224 23.8688 27.3206 24.0705C27.1188 24.2723 26.8452 24.3857 26.5598 24.3857H25.0113C24.7101 24.3857 24.4212 24.5054 24.2082 24.7184C23.9952 24.9314 23.8755 25.2203 23.8755 25.5215C23.8755 25.8227 23.9952 26.1116 24.2082 26.3247C24.4212 26.5377 24.7101 26.6573 25.0113 26.6573C25.2967 26.6573 25.5704 26.7707 25.7721 26.9725C25.9739 27.1743 26.0873 27.4479 26.0873 27.7333C26.0873 28.0187 25.9739 28.2924 25.7721 28.4942C25.5704 28.6959 25.2967 28.8093 25.0113 28.8093H18.4501C17.4402 28.8107 16.4383 28.6312 15.4917 28.2793L10.3805 26.3809C10.1058 26.3027 9.81174 26.3308 9.55686 26.4597C9.30197 26.5886 9.105 26.8088 9.0052 27.0764C8.90539 27.344 8.91007 27.6394 9.01831 27.9037C9.12655 28.1681 9.3304 28.3819 9.58924 28.5026L14.7004 30.401C15.8999 30.8486 17.1698 31.0776 18.4501 31.0771H25.0113C25.5745 31.0761 26.1284 30.9331 26.6217 30.6614C27.1151 30.3897 27.5319 29.998 27.8338 29.5225C28.1357 29.047 28.3129 28.5031 28.3489 27.941C28.385 27.379 28.2788 26.8169 28.0401 26.3067C28.8252 25.9179 29.4269 25.2371 29.7163 24.4102C30.0057 23.5833 29.9599 22.6759 29.5886 21.8824C30.3734 21.4934 30.9747 20.8127 31.264 19.986C31.5532 19.1592 31.5074 18.2521 31.1364 17.4588C31.8135 17.124 32.3574 16.57 32.6799 15.8869C33.0023 15.2038 33.0842 14.4318 32.9124 13.6963C32.7405 12.9607 32.3249 12.3049 31.7332 11.8354C31.1415 11.366 30.4083 11.1104 29.653 11.1103H20.5937C21.1064 9.36042 21.4441 6.50271 19.573 3.74874C19.2888 3.31885 18.9024 2.96605 18.4486 2.72187C17.9947 2.47769 17.4874 2.34973 16.972 2.34942Z" fill="white"/>
<path d="M10.3631 11.5527H3.86091C3.55967 11.5527 3.27078 11.6723 3.05777 11.8853C2.84476 12.0983 2.7251 12.3872 2.7251 12.6885V28.2597C2.7251 28.5609 2.84476 28.8498 3.05777 29.0628C3.27078 29.2758 3.55967 29.3955 3.86091 29.3955H10.3631C10.6643 29.3955 10.9532 29.2758 11.1662 29.0628C11.3792 28.8498 11.4989 28.5609 11.4989 28.2597V12.6885C11.4989 12.3872 11.3792 12.0983 11.1662 11.8853C10.9532 11.6723 10.6643 11.5527 10.3631 11.5527ZM4.99899 13.8243H9.22724V27.1239H4.99672L4.99899 13.8243Z" fill="white"/>
</svg>
