<svg width="36" height="36" viewBox="0 0 36 36" fill="none" xmlns="http://www.w3.org/2000/svg">
<path d="M16.972 2.34894C16.6356 2.34887 16.3011 2.39994 15.9801 2.50038C14.6004 2.93123 13.7183 4.13898 13.7319 5.57616C13.744 6.88992 13.4934 8.03709 12.9876 8.9836C12.3674 10.1444 11.3346 11.0379 9.91711 11.6399C9.77944 11.6982 9.6546 11.783 9.5497 11.8895C9.44481 11.996 9.36192 12.1221 9.30578 12.2607C9.24963 12.3993 9.22133 12.5475 9.22248 12.697C9.22363 12.8465 9.25421 12.9943 9.31248 13.132C9.37075 13.2696 9.45557 13.3945 9.56209 13.4994C9.66861 13.6043 9.79475 13.6871 9.9333 13.7433C10.0719 13.7994 10.2201 13.8277 10.3696 13.8266C10.5191 13.8254 10.6669 13.7949 10.8046 13.7366C14.2423 12.2782 16.0399 9.45079 16.0028 5.55874C16.0037 5.36146 16.0673 5.16958 16.1845 5.01084C16.3016 4.85211 16.4662 4.73475 16.6545 4.67574C16.8427 4.61672 17.0449 4.61912 17.2317 4.68257C17.4185 4.74602 17.5803 4.86724 17.6936 5.0287C19.8396 8.18701 17.9564 11.6641 17.9375 11.6989C17.8417 11.8719 17.7926 12.0668 17.7952 12.2644C17.7979 12.4621 17.852 12.6556 17.9523 12.826C18.0527 12.9963 18.1957 13.1375 18.3674 13.2356C18.539 13.3336 18.7332 13.3852 18.9309 13.3852H29.656C29.9366 13.3927 30.2031 13.5094 30.3989 13.7104C30.5947 13.9114 30.7042 14.181 30.7042 14.4616C30.7042 14.7422 30.5947 15.0118 30.3989 15.2128C30.2031 15.4139 29.9366 15.5305 29.656 15.538H28.1075C27.8063 15.538 27.5174 15.6577 27.3044 15.8707C27.0914 16.0837 26.9717 16.3726 26.9717 16.6738C26.9717 16.975 27.0914 17.2639 27.3044 17.4769C27.5174 17.6899 27.8063 17.8096 28.1075 17.8096C28.2489 17.8095 28.3888 17.8373 28.5194 17.8913C28.65 17.9454 28.7687 18.0246 28.8686 18.1245C28.9685 18.2245 29.0478 18.3431 29.1018 18.4737C29.1559 18.6043 29.1836 18.7443 29.1835 18.8856C29.1831 19.1709 29.0696 19.4443 28.8679 19.646C28.6662 19.8477 28.3928 19.9612 28.1075 19.9616H26.5598C26.2586 19.9616 25.9697 20.0813 25.7567 20.2943C25.5436 20.5073 25.424 20.7962 25.424 21.0974C25.424 21.3986 25.5436 21.6875 25.7567 21.9006C25.9697 22.1136 26.2586 22.2332 26.5598 22.2332C26.8452 22.2332 27.1188 22.3466 27.3206 22.5484C27.5224 22.7502 27.6358 23.0238 27.6358 23.3092C27.6358 23.5946 27.5224 23.8683 27.3206 24.0701C27.1188 24.2718 26.8452 24.3852 26.5598 24.3852H25.0113C24.7101 24.3852 24.4212 24.5049 24.2082 24.7179C23.9952 24.9309 23.8755 25.2198 23.8755 25.521C23.8755 25.8223 23.9952 26.1112 24.2082 26.3242C24.4212 26.5372 24.7101 26.6568 25.0113 26.6568C25.2967 26.6568 25.5704 26.7702 25.7721 26.972C25.9739 27.1738 26.0873 27.4475 26.0873 27.7328C26.0873 28.0182 25.9739 28.2919 25.7721 28.4937C25.5704 28.6955 25.2967 28.8088 25.0113 28.8088H18.4501C17.4402 28.8102 16.4383 28.6307 15.4917 28.2788L10.3805 26.3805C10.1058 26.3022 9.81174 26.3303 9.55686 26.4592C9.30197 26.5881 9.105 26.8083 9.0052 27.0759C8.90539 27.3435 8.91007 27.6389 9.01831 27.9033C9.12655 28.1676 9.3304 28.3814 9.58924 28.5022L14.7004 30.4005C15.8999 30.8481 17.1698 31.0771 18.4501 31.0767H25.0113C25.5745 31.0756 26.1284 30.9326 26.6217 30.6609C27.1151 30.3892 27.5319 29.9975 27.8338 29.522C28.1357 29.0465 28.3129 28.5026 28.3489 27.9406C28.385 27.3785 28.2788 26.8164 28.0401 26.3062C28.8252 25.9174 29.4269 25.2366 29.7163 24.4097C30.0057 23.5828 29.9599 22.6754 29.5886 21.8819C30.3734 21.4929 30.9747 20.8122 31.264 19.9855C31.5532 19.1588 31.5074 18.2517 31.1364 17.4583C31.8135 17.1235 32.3574 16.5695 32.6799 15.8864C33.0023 15.2034 33.0842 14.4313 32.9124 13.6958C32.7405 12.9602 32.3249 12.3044 31.7332 11.835C31.1415 11.3655 30.4083 11.1099 29.653 11.1098H20.5937C21.1064 9.35993 21.4441 6.50222 19.573 3.74826C19.2888 3.31836 18.9024 2.96556 18.4486 2.72138C17.9947 2.4772 17.4874 2.34924 16.972 2.34894Z" fill="url(#paint0_linear)"/>
<path d="M10.3631 11.5517H3.86091C3.55967 11.5517 3.27078 11.6713 3.05777 11.8843C2.84476 12.0974 2.7251 12.3862 2.7251 12.6875V28.2587C2.7251 28.56 2.84476 28.8489 3.05777 29.0619C3.27078 29.2749 3.55967 29.3945 3.86091 29.3945H10.3631C10.6643 29.3945 10.9532 29.2749 11.1662 29.0619C11.3792 28.8489 11.4989 28.56 11.4989 28.2587V12.6875C11.4989 12.3862 11.3792 12.0974 11.1662 11.8843C10.9532 11.6713 10.6643 11.5517 10.3631 11.5517ZM4.99899 13.8233H9.22724V27.1229H4.99672L4.99899 13.8233Z" fill="url(#paint1_linear)"/>
<defs>
<linearGradient id="paint0_linear" x1="20.9669" y1="31.0767" x2="20.9669" y2="2.34893" gradientUnits="userSpaceOnUse">
<stop stop-color="#9670FF"/>
<stop offset="1" stop-color="#42A9F4"/>
</linearGradient>
<linearGradient id="paint1_linear" x1="7.11198" y1="29.3945" x2="7.11198" y2="11.5517" gradientUnits="userSpaceOnUse">
<stop stop-color="#9670FF"/>
<stop offset="1" stop-color="#42A9F4"/>
</linearGradient>
</defs>
</svg>
