<svg width="100" height="100" viewBox="0 0 100 100" fill="none" xmlns="http://www.w3.org/2000/svg">
<g opacity="0.08">
<path d="M47.1444 6.52596C46.2099 6.52579 45.2809 6.66763 44.389 6.94663C40.5567 8.14344 38.1063 11.4983 38.1441 15.4905C38.1778 19.1398 37.4816 22.3264 36.0765 24.9556C34.3539 28.18 31.4849 30.662 27.5474 32.3341C27.165 32.496 26.8182 32.7316 26.5268 33.0275C26.2355 33.3234 26.0052 33.6738 25.8493 34.0586C25.6933 34.4435 25.6147 34.8553 25.6179 35.2706C25.6211 35.6858 25.706 36.0964 25.8679 36.4788C26.0298 36.8612 26.2654 37.208 26.5613 37.4994C26.8571 37.7908 27.2075 38.021 27.5924 38.177C27.9773 38.3329 28.3891 38.4115 28.8043 38.4083C29.2196 38.4051 29.6301 38.3202 30.0126 38.1583C39.5618 34.1073 44.5552 26.2533 44.4521 15.4421C44.4546 14.8941 44.6314 14.3611 44.9568 13.9201C45.2822 13.4792 45.7395 13.1532 46.2624 12.9893C46.7853 12.8254 47.3468 12.832 47.8657 13.0083C48.3846 13.1845 48.834 13.5212 49.1489 13.9697C55.1098 22.7428 49.8788 32.4014 49.8262 32.4982C49.56 32.9785 49.4239 33.5199 49.4311 34.069C49.4384 34.6181 49.5888 35.1557 49.8675 35.6288C50.1462 36.1019 50.5436 36.4941 51.0203 36.7666C51.4971 37.039 52.0367 37.1824 52.5858 37.1824H82.3777C83.157 37.203 83.8974 37.5271 84.4412 38.0856C84.9851 38.6441 85.2894 39.3928 85.2894 40.1723C85.2894 40.9518 84.9851 41.7005 84.4412 42.259C83.8974 42.8175 83.157 43.1415 82.3777 43.1622H78.0763C77.2396 43.1622 76.4371 43.4946 75.8454 44.0863C75.2537 44.678 74.9213 45.4805 74.9213 46.3172C74.9213 47.154 75.2537 47.9565 75.8454 48.5482C76.4371 49.1399 77.2396 49.4723 78.0763 49.4723C78.4689 49.472 78.8577 49.5491 79.2205 49.6992C79.5832 49.8493 79.9128 50.0695 80.1904 50.3471C80.468 50.6247 80.6882 50.9543 80.8383 51.317C80.9884 51.6798 81.0655 52.0686 81.0652 52.4612C81.0641 53.2535 80.7489 54.0131 80.1886 54.5734C79.6283 55.1337 78.8687 55.4489 78.0763 55.45H73.7771C72.9403 55.45 72.1378 55.7824 71.5461 56.3741C70.9545 56.9658 70.6221 57.7683 70.6221 58.6051C70.6221 59.4418 70.9545 60.2443 71.5461 60.836C72.1378 61.4277 72.9403 61.7601 73.7771 61.7601C74.5698 61.7601 75.33 62.075 75.8905 62.6355C76.4511 63.196 76.766 63.9563 76.766 64.749C76.766 65.5417 76.4511 66.3019 75.8905 66.8624C75.33 67.4229 74.5698 67.7378 73.7771 67.7378H69.4757C68.639 67.7378 67.8365 68.0702 67.2448 68.6619C66.6531 69.2536 66.3207 70.0561 66.3207 70.8929C66.3207 71.7296 66.6531 72.5321 67.2448 73.1238C67.8365 73.7155 68.639 74.0479 69.4757 74.0479C70.2684 74.0479 71.0287 74.3628 71.5892 74.9233C72.1497 75.4838 72.4646 76.2441 72.4646 77.0368C72.4646 77.8295 72.1497 78.5897 71.5892 79.1502C71.0287 79.7107 70.2684 80.0256 69.4757 80.0256H51.2501C48.4449 80.0294 45.6617 79.5308 43.0323 78.5533L28.8347 73.2802C28.0716 73.0629 27.2547 73.141 26.5467 73.499C25.8387 73.857 25.2916 74.4687 25.0143 75.2121C24.7371 75.9554 24.7501 76.776 25.0508 77.5102C25.3514 78.2444 25.9177 78.8384 26.6367 79.1738L40.8343 84.4469C44.1662 85.6903 47.6939 86.3264 51.2501 86.3252H69.4757C71.0402 86.3223 72.5787 85.9251 73.9491 85.1703C75.3195 84.4155 76.4775 83.3274 77.316 82.0067C78.1546 80.6859 78.6467 79.1751 78.7469 77.6138C78.8471 76.0525 78.5521 74.4911 77.8892 73.074C80.0699 71.9939 81.7412 70.1029 82.5451 67.8059C83.349 65.5089 83.2218 62.9885 82.1905 60.7841C84.3704 59.7036 86.0408 57.8128 86.8443 55.5164C87.6478 53.2199 87.5205 50.7002 86.4898 48.4963C88.3706 47.5663 89.8816 46.0276 90.7773 44.1301C91.6729 42.2327 91.9006 40.0881 91.4232 38.0449C90.9458 36.0018 89.7914 34.1801 88.1477 32.876C86.504 31.5719 84.4675 30.8621 82.3693 30.8618H57.2047C58.6287 26.0009 59.5668 18.0629 54.3694 10.413C53.5798 9.2188 52.5067 8.23881 51.2459 7.56053C49.9852 6.88226 48.576 6.52681 47.1444 6.52596Z" fill="white"/>
<path d="M28.7859 32.0898H10.7244C9.8876 32.0898 9.08511 32.4222 8.49342 33.0139C7.90174 33.6056 7.56934 34.4081 7.56934 35.2449V78.4983C7.56934 79.3351 7.90174 80.1375 8.49342 80.7292C9.08511 81.3209 9.8876 81.6533 10.7244 81.6533H28.7859C29.6227 81.6533 30.4252 81.3209 31.0168 80.7292C31.6085 80.1375 31.9409 79.3351 31.9409 78.4983V35.2449C31.9409 34.4081 31.6085 33.6056 31.0168 33.0139C30.4252 32.4222 29.6227 32.0898 28.7859 32.0898ZM13.8857 38.3999H25.6309V75.3433H13.8794L13.8857 38.3999Z" fill="white"/>
</g>
</svg>
