<svg width="36" height="36" viewBox="0 0 36 36" fill="none" xmlns="http://www.w3.org/2000/svg">
<path d="M31.5 16.875V11.25C31.5 10.6533 31.2629 10.081 30.841 9.65901C30.419 9.23705 29.8467 9 29.25 9H3.375C2.77826 9 2.20597 9.23705 1.78401 9.65901C1.36205 10.081 1.125 10.6533 1.125 11.25V24.75C1.125 25.3467 1.36205 25.919 1.78401 26.341C2.20597 26.7629 2.77826 27 3.375 27H29.25C29.8467 27 30.419 26.7629 30.841 26.341C31.2629 25.919 31.5 25.3467 31.5 24.75V22.5H34.875V13.5H31.5" stroke="white" stroke-width="2" stroke-linecap="round" stroke-linejoin="round"/>
<path d="M9 13.5H4.5V22.5H9V13.5Z" stroke="white" stroke-width="2" stroke-linecap="round" stroke-linejoin="round"/>
<path d="M18 13.5H13.5V22.5H18V13.5Z" stroke="white" stroke-width="2" stroke-linecap="round" stroke-linejoin="round"/>
<path d="M27 13.5H22.5V22.5H27V13.5Z" stroke="white" stroke-width="2" stroke-linecap="round" stroke-linejoin="round"/>
</svg>
