<svg width="100" height="100" viewBox="0 0 100 100" fill="none" xmlns="http://www.w3.org/2000/svg">
<g opacity="0.08">
<path fill-rule="evenodd" clip-rule="evenodd" d="M2.99134 24.8668C4.68438 23.1738 6.98063 22.2227 9.37495 22.2227H81.2499C83.6443 22.2227 85.9405 23.1738 87.6336 24.8668C89.3266 26.5599 90.2777 28.8561 90.2777 31.2504V34.7227H96.8749C98.4091 34.7227 99.6527 35.9663 99.6527 37.5004V62.5004C99.6527 64.0346 98.4091 65.2782 96.8749 65.2782H90.2777V68.7504C90.2777 71.1448 89.3266 73.441 87.6336 75.134C85.9405 76.8271 83.6443 77.7782 81.2499 77.7782H9.37495C6.98063 77.7782 4.68438 76.8271 2.99134 75.134C1.29831 73.441 0.347168 71.1448 0.347168 68.7504V31.2504C0.347168 28.8561 1.29831 26.5599 2.99134 24.8668ZM84.7222 46.8754C84.7222 48.4096 85.9658 49.6532 87.4999 49.6532C89.0341 49.6532 90.2777 48.4096 90.2777 46.8754V40.2782H94.0972V59.7227H87.4999C85.9658 59.7227 84.7222 60.9663 84.7222 62.5004V68.7504C84.7222 69.6713 84.3563 70.5545 83.7052 71.2057C83.054 71.8568 82.1708 72.2227 81.2499 72.2227H9.37495C8.45406 72.2227 7.57088 71.8568 6.91971 71.2057C6.26855 70.5545 5.90272 69.6713 5.90272 68.7504V31.2504C5.90272 30.3295 6.26855 29.4464 6.91971 28.7952C7.57088 28.144 8.45406 27.7782 9.37495 27.7782H81.2499C82.1708 27.7782 83.054 28.144 83.7052 28.7952C84.3563 29.4464 84.7222 30.3295 84.7222 31.2504V46.8754Z" fill="white"/>
<path fill-rule="evenodd" clip-rule="evenodd" d="M9.72217 37.5004C9.72217 35.9663 10.9658 34.7227 12.4999 34.7227H24.9999C26.5341 34.7227 27.7777 35.9663 27.7777 37.5004V62.5004C27.7777 64.0346 26.5341 65.2782 24.9999 65.2782H12.4999C10.9658 65.2782 9.72217 64.0346 9.72217 62.5004V37.5004ZM15.2777 40.2782V59.7227H22.2222V40.2782H15.2777Z" fill="white"/>
<path fill-rule="evenodd" clip-rule="evenodd" d="M34.7222 37.5004C34.7222 35.9663 35.9658 34.7227 37.4999 34.7227H49.9999C51.5341 34.7227 52.7777 35.9663 52.7777 37.5004V62.5004C52.7777 64.0346 51.5341 65.2782 49.9999 65.2782H37.4999C35.9658 65.2782 34.7222 64.0346 34.7222 62.5004V37.5004ZM40.2777 40.2782V59.7227H47.2222V40.2782H40.2777Z" fill="white"/>
<path fill-rule="evenodd" clip-rule="evenodd" d="M59.7222 37.5004C59.7222 35.9663 60.9658 34.7227 62.4999 34.7227H74.9999C76.5341 34.7227 77.7777 35.9663 77.7777 37.5004V62.5004C77.7777 64.0346 76.5341 65.2782 74.9999 65.2782H62.4999C60.9658 65.2782 59.7222 64.0346 59.7222 62.5004V37.5004ZM65.2777 40.2782V59.7227H72.2222V40.2782H65.2777Z" fill="white"/>
</g>
</svg>
