<svg width="100" height="100" viewBox="0 0 100 100" fill="none" xmlns="http://www.w3.org/2000/svg">
<g opacity="0.08">
<path fill-rule="evenodd" clip-rule="evenodd" d="M50 0C51.7259 0 53.125 1.39911 53.125 3.125V21.875C53.125 23.6009 51.7259 25 50 25C48.2741 25 46.875 23.6009 46.875 21.875V3.125C46.875 1.39911 48.2741 0 50 0Z" fill="white"/>
<path fill-rule="evenodd" clip-rule="evenodd" d="M50 75C51.7259 75 53.125 76.3991 53.125 78.125V96.875C53.125 98.6009 51.7259 100 50 100C48.2741 100 46.875 98.6009 46.875 96.875V78.125C46.875 76.3991 48.2741 75 50 75Z" fill="white"/>
<path fill-rule="evenodd" clip-rule="evenodd" d="M75 50C75 48.2741 76.3991 46.875 78.125 46.875H96.875C98.6009 46.875 100 48.2741 100 50C100 51.7259 98.6009 53.125 96.875 53.125H78.125C76.3991 53.125 75 51.7259 75 50Z" fill="white"/>
<path fill-rule="evenodd" clip-rule="evenodd" d="M0 50C0 48.2741 1.39911 46.875 3.125 46.875H21.875C23.6009 46.875 25 48.2741 25 50C25 51.7259 23.6009 53.125 21.875 53.125H3.125C1.39911 53.125 0 51.7259 0 50Z" fill="white"/>
<path fill-rule="evenodd" clip-rule="evenodd" d="M50 15.625C31.0152 15.625 15.625 31.0152 15.625 50C15.625 68.9848 31.0152 84.375 50 84.375C68.9848 84.375 84.375 68.9848 84.375 50C84.375 31.0152 68.9848 15.625 50 15.625ZM9.375 50C9.375 27.5634 27.5634 9.375 50 9.375C72.4366 9.375 90.625 27.5634 90.625 50C90.625 72.4366 72.4366 90.625 50 90.625C27.5634 90.625 9.375 72.4366 9.375 50Z" fill="white"/>
</g>
</svg>
