<svg width="100" height="100" viewBox="0 0 100 100" fill="none" xmlns="http://www.w3.org/2000/svg">
<g opacity="0.08">
<path fill-rule="evenodd" clip-rule="evenodd" d="M19.0972 3.12543C19.0972 1.59131 20.3408 0.347656 21.8749 0.347656H78.1249C78.8617 0.347656 79.5682 0.640314 80.0891 1.16125C80.6101 1.68218 80.9027 2.38872 80.9027 3.12543C80.9027 7.36153 82.5855 11.4241 85.5809 14.4195C88.5762 17.4149 92.6389 19.0977 96.8749 19.0977C98.4091 19.0977 99.6527 20.3413 99.6527 21.8754V34.3754H96.8749C99.6527 34.3754 99.6527 34.3772 99.6527 34.379L99.6527 34.3836L99.6527 34.3954L99.6524 34.4303L99.6508 34.5439C99.6491 34.6389 99.6457 34.7722 99.6393 34.9419C99.6265 35.2813 99.6014 35.7667 99.5525 36.3835C99.4546 37.6168 99.261 39.3774 98.878 41.5476C98.1125 45.8858 96.587 51.878 93.5444 58.5718C87.439 72.0036 75.2706 88.1478 51.1746 99.3926C50.43 99.7401 49.5698 99.7401 48.8253 99.3926C24.7293 88.1478 12.5609 72.0036 6.45552 58.5718C3.41289 51.878 1.88742 45.8858 1.12186 41.5476C0.738873 39.3774 0.545304 37.6168 0.447428 36.3835C0.398476 35.7667 0.373417 35.2813 0.360593 34.9419C0.35418 34.7722 0.350824 34.6389 0.349071 34.5439L0.347462 34.4303L0.347219 34.3954L0.347178 34.3836L0.34717 34.379C0.347168 34.3772 0.347168 34.3754 3.12495 34.3754H0.347168V21.8754C0.347168 20.3413 1.59082 19.0977 3.12495 19.0977C7.36104 19.0977 11.4236 17.4149 14.419 14.4195C17.4144 11.4241 19.0972 7.36153 19.0972 3.12543ZM5.90272 34.3754L5.90368 34.4414C5.90479 34.5015 5.90716 34.599 5.91219 34.7321C5.92225 34.9985 5.94297 35.4072 5.98557 35.944C6.0708 37.0179 6.24344 38.602 6.59288 40.5822C7.29216 44.5448 8.69637 50.076 11.5131 56.2729C17.0292 68.4081 28.0065 83.205 49.9999 93.8012C71.9934 83.205 82.9707 68.4081 88.4868 56.2729C91.3035 50.076 92.7077 44.5448 93.407 40.5822C93.7565 38.602 93.9291 37.0179 94.0143 35.944C94.0569 35.4072 94.0776 34.9985 94.0877 34.7321C94.0927 34.599 94.0951 34.5015 94.0962 34.4414L94.0972 34.3754V34.371V24.4733C89.4125 23.8639 85.0294 21.7247 81.6525 18.3479C78.2757 14.971 76.1365 10.5878 75.5271 5.90321H24.4728C23.8634 10.5878 21.7242 14.971 18.3474 18.3479C14.9705 21.7247 10.5874 23.8639 5.90272 24.4733V34.3711V34.3754Z" fill="white"/>
<path fill-rule="evenodd" clip-rule="evenodd" d="M75.1041 32.1524C76.3314 33.0729 76.5801 34.814 75.6597 36.0413L52.2415 67.2655L52.231 67.2795L52.229 67.2821L52.2269 67.285L52.2249 67.2877L52.2232 67.2899C51.7623 67.9044 51.0666 68.302 50.303 68.3858C49.5395 68.4696 48.7754 68.2335 48.1922 67.7337L47.7079 67.3173C47.3978 67.0501 46.9501 66.6638 46.3985 66.1857C45.2954 65.2297 43.7753 63.9057 42.1074 62.4341C38.7922 59.5089 34.8241 55.9397 32.4108 53.5263C31.326 52.4415 31.326 50.6827 32.4108 49.5979C33.4955 48.5131 35.2543 48.5131 36.3391 49.5979C38.6132 51.8721 42.4576 55.3341 45.7831 58.2683C47.2087 59.5261 48.5261 60.6759 49.5636 61.5768L71.2152 32.708C72.1357 31.4807 73.8768 31.2319 75.1041 32.1524Z" fill="white"/>
</g>
</svg>
