<svg width="36" height="36" viewBox="0 0 36 36" fill="none" xmlns="http://www.w3.org/2000/svg">
<path d="M9.38227 35.2247C9.49897 35.5574 9.78301 35.8035 10.1292 35.8712C10.1929 35.8834 10.2566 35.8898 10.3202 35.8898C10.6019 35.8898 10.8737 35.7695 11.0644 35.5543L15.7895 30.2156C15.8021 30.2014 15.8104 30.1847 15.8223 30.1701C16.1416 30.2536 16.6017 30.324 17.2698 30.3608V34.0217C17.2698 34.5712 17.7149 35.0163 18.2644 35.0163C18.8131 35.0163 19.2581 34.5712 19.2581 34.0217V30.3687C19.8191 30.3426 20.2084 30.2931 20.4806 30.235L25.1902 35.5547C25.3805 35.7699 25.6527 35.8898 25.9347 35.8898C25.998 35.8898 26.0621 35.8834 26.1254 35.8712C26.4716 35.8035 26.7556 35.5574 26.8723 35.2247L30.3893 25.2072C30.5052 24.8789 30.4395 24.5134 30.2176 24.2447L25.1008 18.0555C25.2171 17.0139 25.2856 15.9355 25.2856 14.8301C25.2856 11.3991 23.0884 0.0986328 18.2371 0.0986328C13.4471 0.0986328 10.9766 10.471 10.9766 14.8962C10.9766 15.9968 11.0375 17.0554 11.1419 18.0686L6.03743 24.2447C5.8155 24.5134 5.75022 24.8789 5.86574 25.2072L9.38227 35.2247ZM19.2577 28.3764V24.8777C19.2577 24.3286 18.8127 23.8836 18.264 23.8836C17.7145 23.8836 17.2694 24.3286 17.2694 24.8777V28.3669C16.8489 28.3392 16.5376 28.2981 16.369 28.2597C15.7052 27.3111 12.9645 22.1674 12.9645 14.8958C12.9645 12.9558 13.4083 10.4381 14.1161 8.14879C15.1834 8.74338 16.5961 9.00171 18.0215 9.00171C19.5149 9.00171 21.0202 8.71687 22.1567 8.24175C22.8589 10.6102 23.2976 13.1472 23.2976 14.8301C23.2976 21.6678 20.634 27.1861 19.9433 28.3147C19.7942 28.3365 19.5635 28.3598 19.2577 28.3764ZM28.327 25.0787L25.5562 32.9702L21.9518 28.8982C21.9352 28.8796 21.9154 28.8658 21.8984 28.8488C22.7339 27.315 23.969 24.3567 24.6945 20.6839L28.327 25.0787ZM18.2371 2.08654C19.4425 2.08654 20.6115 3.95103 21.5222 6.34918C19.795 7.12773 16.2072 7.32435 14.7993 6.21982C15.7586 3.85569 16.9909 2.08654 18.2371 2.08654ZM11.5304 20.7187C12.2528 24.5054 13.525 27.3787 14.3776 28.827C14.3518 28.8508 14.3242 28.8713 14.3008 28.8982L10.6973 32.9694L7.92763 25.0787L11.5304 20.7187Z" fill="white"/>
<path d="M18.1287 9.7041C15.8801 9.7041 14.0508 11.5318 14.0508 13.7784C14.0508 16.0259 15.8801 17.854 18.1287 17.854C20.3741 17.854 22.2014 16.0255 22.2014 13.7784C22.2014 11.5318 20.3741 9.7041 18.1287 9.7041ZM18.1287 15.8656C16.9763 15.8656 16.0391 14.9292 16.0391 13.778C16.0391 12.6276 16.9763 11.692 18.1287 11.692C19.2779 11.692 20.2135 12.628 20.2135 13.778C20.2135 14.9292 19.2779 15.8656 18.1287 15.8656Z" fill="white"/>
</svg>
