<svg width="36" height="36" viewBox="0 0 36 36" fill="none" xmlns="http://www.w3.org/2000/svg">
<path d="M9.38227 35.2252C9.49897 35.5579 9.78301 35.804 10.1292 35.8717C10.1929 35.8839 10.2566 35.8902 10.3202 35.8902C10.6019 35.8902 10.8737 35.77 11.0644 35.5548L15.7895 30.2161C15.8021 30.2018 15.8104 30.1852 15.8223 30.1706C16.1416 30.2541 16.6017 30.3245 17.2698 30.3613V34.0222C17.2698 34.5717 17.7149 35.0167 18.2644 35.0167C18.8131 35.0167 19.2581 34.5717 19.2581 34.0222V30.3692C19.8191 30.3431 20.2084 30.2936 20.4806 30.2355L25.1902 35.5552C25.3805 35.7704 25.6527 35.8902 25.9347 35.8902C25.998 35.8902 26.0621 35.8839 26.1254 35.8717C26.4716 35.804 26.7556 35.5579 26.8723 35.2252L30.3893 25.2077C30.5052 24.8794 30.4395 24.5138 30.2176 24.2452L25.1008 18.056C25.2171 17.0144 25.2856 15.936 25.2856 14.8306C25.2856 11.3996 23.0884 0.0991211 18.2371 0.0991211C13.4471 0.0991211 10.9766 10.4715 10.9766 14.8967C10.9766 15.9973 11.0375 17.0559 11.1419 18.0691L6.03743 24.2452C5.8155 24.5138 5.75022 24.8794 5.86574 25.2077L9.38227 35.2252ZM19.2577 28.3769V24.8782C19.2577 24.3291 18.8127 23.884 18.264 23.884C17.7145 23.884 17.2694 24.3291 17.2694 24.8782V28.3674C16.8489 28.3397 16.5376 28.2986 16.369 28.2602C15.7052 27.3116 12.9645 22.1679 12.9645 14.8963C12.9645 12.9563 13.4083 10.4386 14.1161 8.14928C15.1834 8.74387 16.5961 9.0022 18.0215 9.0022C19.5149 9.0022 21.0202 8.71736 22.1567 8.24224C22.8589 10.6107 23.2976 13.1477 23.2976 14.8306C23.2976 21.6683 20.634 27.1865 19.9433 28.3152C19.7942 28.337 19.5635 28.3603 19.2577 28.3769ZM28.327 25.0792L25.5562 32.9707L21.9518 28.8987C21.9352 28.8801 21.9154 28.8663 21.8984 28.8493C22.7339 27.3155 23.969 24.3572 24.6945 20.6844L28.327 25.0792ZM18.2371 2.08703C19.4425 2.08703 20.6115 3.95152 21.5222 6.34967C19.795 7.12822 16.2072 7.32484 14.7993 6.22031C15.7586 3.85618 16.9909 2.08703 18.2371 2.08703ZM11.5304 20.7192C12.2528 24.5059 13.525 27.3792 14.3776 28.8275C14.3518 28.8513 14.3242 28.8718 14.3008 28.8987L10.6973 32.9699L7.92763 25.0792L11.5304 20.7192Z" fill="url(#paint0_linear)"/>
<path d="M18.1287 9.70459C15.8801 9.70459 14.0508 11.5323 14.0508 13.7789C14.0508 16.0264 15.8801 17.8544 18.1287 17.8544C20.3741 17.8544 22.2014 16.026 22.2014 13.7789C22.2014 11.5323 20.3741 9.70459 18.1287 9.70459ZM18.1287 15.8661C16.9763 15.8661 16.0391 14.9297 16.0391 13.7785C16.0391 12.6281 16.9763 11.6925 18.1287 11.6925C19.2779 11.6925 20.2135 12.6285 20.2135 13.7785C20.2135 14.9297 19.2779 15.8661 18.1287 15.8661Z" fill="url(#paint1_linear)"/>
<defs>
<linearGradient id="paint0_linear" x1="18.1276" y1="0.0991211" x2="18.1276" y2="35.8902" gradientUnits="userSpaceOnUse">
<stop stop-color="#42A9F4"/>
<stop offset="1" stop-color="#9670FF"/>
</linearGradient>
<linearGradient id="paint1_linear" x1="18.1261" y1="9.70459" x2="18.1261" y2="17.8544" gradientUnits="userSpaceOnUse">
<stop stop-color="#42A9F4"/>
<stop offset="1" stop-color="#9670FF"/>
</linearGradient>
</defs>
</svg>
