<svg width="100" height="100" viewBox="0 0 100 100" fill="none" xmlns="http://www.w3.org/2000/svg">
<g opacity="0.08">
<path d="M26.0619 97.8469C26.386 98.7711 27.175 99.4546 28.1366 99.6426C28.3135 99.6766 28.4904 99.6942 28.6673 99.6942C29.4498 99.6942 30.2047 99.3601 30.7344 98.7623L43.8596 83.9327C43.8948 83.8931 43.9179 83.8469 43.9509 83.8063C44.8377 84.0382 46.1157 84.2338 47.9717 84.336V94.5052C47.9717 96.0316 49.208 97.2678 50.7344 97.2678C52.2585 97.2678 53.4948 96.0316 53.4948 94.5052V84.3579C55.0531 84.2854 56.1344 84.148 56.8904 83.9865L69.9728 98.7634C70.5014 99.3612 71.2574 99.6942 72.041 99.6942C72.2168 99.6942 72.3948 99.6766 72.5706 99.6426C73.5322 99.4546 74.3212 98.7711 74.6454 97.8469L84.4146 70.0206C84.7366 69.1085 84.5541 68.0931 83.9377 67.3469L69.7245 50.1546C70.0476 47.2612 70.2377 44.2656 70.2377 41.1953C70.2377 31.6645 64.1344 0.274414 50.6585 0.274414C37.3531 0.274414 30.4904 29.0865 30.4904 41.3788C30.4904 44.436 30.6597 47.3766 30.9498 50.1909L16.7706 67.3469C16.1542 68.0931 15.9728 69.1085 16.2937 70.0206L26.0619 97.8469ZM53.4937 78.8239V69.1052C53.4937 67.5799 52.2575 66.3437 50.7333 66.3437C49.2069 66.3437 47.9706 67.5799 47.9706 69.1052V78.7975C46.8025 78.7206 45.9377 78.6063 45.4695 78.4997C43.6256 75.8645 36.0124 61.5766 36.0124 41.3777C36.0124 35.9887 37.2454 28.9953 39.2113 22.636C42.1761 24.2876 46.1003 25.0052 50.0597 25.0052C54.208 25.0052 58.3893 24.214 61.5465 22.8942C63.497 29.4733 64.7157 36.5206 64.7157 41.1953C64.7157 60.1887 57.3168 75.5173 55.3981 78.6524C54.9838 78.7129 54.3432 78.7777 53.4937 78.8239ZM78.686 69.6634L70.9893 91.5843L60.9772 80.2733C60.9311 80.2217 60.8761 80.1832 60.8289 80.136C63.1498 75.8755 66.5805 67.6579 68.5959 57.4557L78.686 69.6634ZM50.6585 5.79639C54.0069 5.79639 57.2542 10.9755 59.7838 17.6371C54.986 19.7997 45.0201 20.3458 41.1091 17.2777C43.7739 10.7107 47.197 5.79639 50.6585 5.79639ZM32.0289 57.5524C34.0355 68.0711 37.5695 76.0524 39.9377 80.0755C39.8662 80.1415 39.7893 80.1986 39.7245 80.2733L29.7146 91.5821L22.0212 69.6634L32.0289 57.5524Z" fill="white"/>
<path d="M50.3573 26.9561C44.1111 26.9561 39.0298 32.033 39.0298 38.2736C39.0298 44.5165 44.1111 49.5945 50.3573 49.5945C56.5946 49.5945 61.6705 44.5154 61.6705 38.2736C61.6705 32.033 56.5946 26.9561 50.3573 26.9561ZM50.3573 44.0714C47.1562 44.0714 44.5529 41.4703 44.5529 38.2725C44.5529 35.0769 47.1562 32.478 50.3573 32.478C53.5496 32.478 56.1485 35.078 56.1485 38.2725C56.1485 41.4703 53.5496 44.0714 50.3573 44.0714Z" fill="white"/>
</g>
</svg>
