<svg width="288" height="118" viewBox="0 0 288 118" fill="none" xmlns="http://www.w3.org/2000/svg">
<path fill-rule="evenodd" clip-rule="evenodd" d="M1.15098 60.8736C0.397224 57.4036 0 53.7991 0 50.101C0 22.431 22.2378 0 49.6696 0C77.1014 0 99.3392 22.431 99.3392 50.101C99.3392 73.9979 82.7526 93.9872 60.5585 98.9943L40.2204 78.8971C43.1918 79.8886 46.3686 80.4253 49.6696 80.4253C66.2731 80.4253 79.7328 66.8486 79.7328 50.101C79.7328 33.3534 66.2731 19.7767 49.6696 19.7767C33.0662 19.7767 19.6064 33.3534 19.6064 50.101C19.6064 53.8949 20.2972 57.5261 21.5587 60.8736L1.15098 60.8736Z" fill="white"/>
<g filter="url(#filter0_f)">
<path fill-rule="evenodd" clip-rule="evenodd" d="M78.753 90.2551L64.7867 76.3373L65.0859 76.0391L79.0523 89.9569L78.753 90.2551Z" fill="white"/>
</g>
<path d="M42.7734 60.9792C47.2633 60.9792 51.5692 62.7566 54.744 65.9203L93.1342 104.177L72.543 104.177C68.0638 104.177 63.7671 102.408 60.5941 99.2576L22.0435 60.9792L42.7734 60.9792Z" fill="white"/>
<path d="M132.73 73.5107C132.73 72.1327 132.969 70.7654 133.445 69.4089C133.943 68.0309 134.658 66.8035 135.59 65.727C136.521 64.6504 137.658 63.7783 139.001 63.1108C140.366 62.4218 141.914 62.0773 143.647 62.0773C145.705 62.0773 147.459 62.551 148.91 63.4984C150.361 64.4243 151.444 65.6193 152.159 67.0835L150.795 67.8586C150.383 67.0619 149.896 66.3944 149.333 65.8561C148.791 65.3179 148.196 64.8872 147.546 64.5642C146.918 64.2197 146.257 63.9721 145.564 63.8214C144.871 63.6707 144.188 63.5953 143.517 63.5953C142.044 63.5953 140.745 63.8967 139.618 64.4996C138.492 65.081 137.539 65.8454 136.759 66.7928C135.979 67.7402 135.384 68.8168 134.972 70.0226C134.582 71.2068 134.387 72.4018 134.387 73.6076C134.387 74.9641 134.626 76.256 135.102 77.4833C135.579 78.7107 136.229 79.798 137.052 80.7454C137.875 81.6713 138.849 82.4141 139.976 82.974C141.102 83.5338 142.315 83.8137 143.614 83.8137C144.308 83.8137 145.022 83.7276 145.759 83.5553C146.495 83.3831 147.199 83.1139 147.871 82.7479C148.542 82.3818 149.17 81.9189 149.755 81.3591C150.34 80.7777 150.827 80.0995 151.217 79.3243L152.647 80.0026C152.257 80.8638 151.726 81.6282 151.055 82.2957C150.383 82.9632 149.636 83.523 148.813 83.9752C147.99 84.4274 147.113 84.7719 146.181 85.0087C145.271 85.224 144.373 85.3317 143.485 85.3317C141.903 85.3317 140.452 84.9872 139.131 84.2982C137.831 83.6091 136.705 82.7156 135.752 81.6174C134.799 80.4978 134.052 79.2382 133.51 77.8386C132.99 76.4175 132.73 74.9749 132.73 73.5107Z" fill="white"/>
<path d="M163.35 85.4609C162.158 85.4609 161.054 85.2348 160.036 84.7826C159.039 84.3089 158.173 83.6737 157.437 82.8771C156.7 82.0804 156.126 81.1545 155.715 80.0995C155.303 79.0444 155.097 77.9355 155.097 76.7728C155.097 75.5885 155.303 74.4689 155.715 73.4138C156.148 72.3588 156.733 71.4329 157.469 70.6362C158.205 69.8395 159.072 69.2151 160.068 68.7629C161.086 68.2892 162.18 68.0524 163.35 68.0524C164.519 68.0524 165.602 68.2892 166.599 68.7629C167.595 69.2151 168.461 69.8395 169.198 70.6362C169.956 71.4329 170.541 72.3588 170.952 73.4138C171.385 74.4689 171.602 75.5885 171.602 76.7728C171.602 77.9355 171.385 79.0444 170.952 80.0995C170.541 81.1545 169.967 82.0804 169.23 82.8771C168.494 83.6737 167.617 84.3089 166.599 84.7826C165.602 85.2348 164.519 85.4609 163.35 85.4609ZM156.722 76.8374C156.722 77.8278 156.895 78.7645 157.242 79.6473C157.588 80.5086 158.054 81.2622 158.639 81.9081C159.245 82.5541 159.949 83.0708 160.75 83.4584C161.552 83.8245 162.407 84.0075 163.317 84.0075C164.227 84.0075 165.082 83.8245 165.884 83.4584C166.685 83.0708 167.389 82.5433 167.996 81.8758C168.602 81.2083 169.079 80.444 169.425 79.5827C169.772 78.6999 169.945 77.7525 169.945 76.7405C169.945 75.75 169.772 74.8242 169.425 73.9629C169.079 73.0801 168.602 72.3157 167.996 71.6697C167.389 71.0023 166.685 70.4747 165.884 70.0872C165.104 69.6996 164.259 69.5058 163.35 69.5058C162.44 69.5058 161.584 69.6996 160.783 70.0872C159.982 70.4747 159.278 71.0023 158.671 71.6697C158.086 72.3372 157.61 73.1231 157.242 74.0275C156.895 74.9103 156.722 75.8469 156.722 76.8374Z" fill="white"/>
<path d="M189.302 85.1379H187.678V75.7716C187.678 73.5968 187.364 72.0143 186.736 71.0238C186.129 70.0333 185.154 69.5381 183.811 69.5381C183.097 69.5381 182.382 69.6673 181.667 69.9257C180.974 70.184 180.324 70.5501 179.718 71.0238C179.111 71.4975 178.581 72.0573 178.126 72.7033C177.671 73.3277 177.335 74.0059 177.119 74.738V85.1379H175.494V68.3431H177.021V72.348C177.368 71.702 177.79 71.1207 178.288 70.6039C178.808 70.0656 179.382 69.6135 180.01 69.2474C180.66 68.8598 181.342 68.5692 182.057 68.3754C182.772 68.1601 183.508 68.0524 184.266 68.0524C186.107 68.0524 187.407 68.6983 188.165 69.9903C188.923 71.2606 189.302 73.0908 189.302 75.4809V85.1379Z" fill="white"/>
<path d="M199.574 85.4609C198.275 85.4609 197.029 85.2456 195.838 84.8149C194.647 84.3843 193.607 83.7383 192.719 82.8771L193.531 81.7789C194.441 82.5971 195.383 83.2 196.358 83.5876C197.333 83.9752 198.405 84.169 199.574 84.169C201.047 84.169 202.228 83.8675 203.116 83.2646C204.026 82.6402 204.48 81.7789 204.48 80.6808C204.48 80.1641 204.361 79.7334 204.123 79.3889C203.906 79.0229 203.571 78.7214 203.116 78.4846C202.661 78.2262 202.098 78.0001 201.426 77.8063C200.755 77.6125 199.975 77.408 199.087 77.1927C198.134 76.9773 197.3 76.762 196.585 76.5467C195.892 76.3314 195.318 76.073 194.863 75.7716C194.409 75.4701 194.062 75.1041 193.824 74.6734C193.607 74.2428 193.499 73.6937 193.499 73.0262C193.499 72.1865 193.661 71.4544 193.986 70.83C194.311 70.2056 194.755 69.6888 195.318 69.2797C195.903 68.8706 196.564 68.5692 197.3 68.3754C198.058 68.1601 198.86 68.0524 199.704 68.0524C201.026 68.0524 202.195 68.2785 203.213 68.7306C204.231 69.1613 205.022 69.7211 205.585 70.4101L204.675 71.2822C204.112 70.6362 203.376 70.1517 202.466 69.8288C201.578 69.5058 200.625 69.3443 199.607 69.3443C198.979 69.3443 198.383 69.4089 197.82 69.5381C197.279 69.6673 196.802 69.8718 196.39 70.1517C195.979 70.4317 195.654 70.7977 195.416 71.2499C195.178 71.6805 195.058 72.1973 195.058 72.8002C195.058 73.2954 195.134 73.6937 195.286 73.9952C195.459 74.2966 195.719 74.555 196.066 74.7703C196.434 74.9856 196.899 75.1794 197.463 75.3517C198.026 75.5024 198.697 75.6747 199.477 75.8684C200.538 76.1268 201.481 76.3744 202.304 76.6113C203.127 76.8481 203.809 77.1388 204.35 77.4833C204.914 77.8278 205.336 78.2369 205.618 78.7107C205.921 79.1844 206.072 79.7872 206.072 80.5193C206.072 82.0266 205.477 83.2323 204.285 84.1367C203.116 85.0195 201.546 85.4609 199.574 85.4609Z" fill="white"/>
<path d="M215.086 85.4609C211.491 85.4609 209.693 82.9847 209.693 78.0324V68.3431H211.318V77.8063C211.318 81.9404 212.736 84.0075 215.574 84.0075C216.289 84.0075 216.982 83.8891 217.653 83.6522C218.325 83.3938 218.953 83.0493 219.538 82.6187C220.122 82.1665 220.631 81.6282 221.065 81.0038C221.519 80.3794 221.877 79.6903 222.137 78.9367V68.3431H223.761V82.8771C223.761 83.4154 223.989 83.6845 224.443 83.6845V85.1379C224.335 85.1594 224.238 85.1702 224.151 85.1702C224.064 85.1702 223.999 85.1702 223.956 85.1702C223.523 85.1702 223.133 85.041 222.786 84.7826C222.462 84.5027 222.299 84.1367 222.299 83.6845V81.1653C221.563 82.5218 220.545 83.5768 219.245 84.3305C217.967 85.0841 216.581 85.4609 215.086 85.4609Z" fill="white"/>
<path d="M229.054 61.5605H230.711V81.8112C230.711 82.4357 230.884 82.9309 231.231 83.2969C231.599 83.663 232.097 83.846 232.726 83.846C232.964 83.846 233.245 83.8245 233.57 83.7814C233.917 83.7168 234.231 83.6307 234.512 83.523L234.837 84.8149C234.469 84.9657 234.014 85.0841 233.473 85.1702C232.931 85.2779 232.466 85.3317 232.076 85.3317C231.166 85.3317 230.43 85.0625 229.866 84.5242C229.325 83.9644 229.054 83.2216 229.054 82.2957V61.5605Z" fill="white"/>
<path d="M244.87 84.3305C244.783 84.3735 244.632 84.4597 244.415 84.5888C244.22 84.6965 243.96 84.8042 243.635 84.9118C243.332 85.0195 242.985 85.1164 242.596 85.2025C242.206 85.2886 241.783 85.3317 241.328 85.3317C240.874 85.3317 240.44 85.2671 240.029 85.1379C239.639 85.0087 239.292 84.8149 238.989 84.5565C238.686 84.2982 238.448 83.986 238.274 83.6199C238.101 83.2539 238.014 82.8232 238.014 82.328V69.6673H235.643V68.3431H238.014V62.5941H239.639V68.3431H243.57V69.6673H239.639V81.9404C239.639 82.5648 239.856 83.0385 240.289 83.3615C240.722 83.663 241.209 83.8137 241.751 83.8137C242.422 83.8137 242.996 83.706 243.473 83.4907C243.971 83.2539 244.274 83.1031 244.382 83.0386L244.87 84.3305Z" fill="white"/>
<path d="M247.739 85.1379V68.3431H249.363V85.1379H247.739ZM247.739 64.5319V61.5605H249.363V64.5319H247.739Z" fill="white"/>
<path d="M268.273 85.1379H266.649V75.7716C266.649 73.5968 266.335 72.0143 265.707 71.0238C265.1 70.0333 264.126 69.5381 262.783 69.5381C262.068 69.5381 261.353 69.6673 260.638 69.9257C259.945 70.184 259.295 70.5501 258.689 71.0238C258.083 71.4975 257.552 72.0573 257.097 72.7033C256.642 73.3277 256.306 74.0059 256.09 74.738V85.1379H254.465V68.3431H255.992V72.348C256.339 71.702 256.761 71.1207 257.259 70.6039C257.779 70.0656 258.353 69.6135 258.981 69.2474C259.631 68.8598 260.313 68.5692 261.028 68.3754C261.743 68.1601 262.479 68.0524 263.238 68.0524C265.079 68.0524 266.378 68.6983 267.136 69.9903C267.894 71.2606 268.273 73.0908 268.273 75.4809V85.1379Z" fill="white"/>
<path d="M280.008 85.3963C278.838 85.3963 277.766 85.1594 276.791 84.6857C275.817 84.1905 274.972 83.5445 274.257 82.7479C273.564 81.9297 273.012 81.0038 272.6 79.9703C272.21 78.9367 272.015 77.8709 272.015 76.7728C272.015 75.6316 272.199 74.5335 272.568 73.4784C272.958 72.4234 273.499 71.4975 274.192 70.7008C274.885 69.8826 275.708 69.2366 276.661 68.7629C277.636 68.2892 278.708 68.0524 279.878 68.0524C281.351 68.0524 282.629 68.44 283.712 69.2151C284.816 69.9687 285.748 70.8946 286.506 71.9927V68.3431H288V85.4609C288 86.6021 287.784 87.6033 287.35 88.4646C286.917 89.3258 286.332 90.0364 285.596 90.5962C284.881 91.1776 284.036 91.6082 283.062 91.8881C282.109 92.1896 281.102 92.3403 280.04 92.3403C279.066 92.3403 278.188 92.2434 277.409 92.0496C276.629 91.8774 275.936 91.619 275.329 91.2745C274.744 90.9515 274.214 90.5424 273.737 90.0472C273.282 89.5735 272.882 89.0459 272.535 88.4646L273.64 87.7217C274.311 88.8629 275.221 89.6919 276.369 90.2087C277.517 90.7469 278.741 91.0161 280.04 91.0161C280.907 91.0161 281.719 90.8977 282.477 90.6608C283.257 90.424 283.928 90.0687 284.491 89.595C285.076 89.1428 285.531 88.5722 285.856 87.8832C286.202 87.1942 286.376 86.3868 286.376 85.4609V81.7789C285.683 82.8771 284.762 83.7599 283.614 84.4274C282.466 85.0733 281.264 85.3963 280.008 85.3963ZM280.398 84.0075C281.112 84.0075 281.806 83.8783 282.477 83.6199C283.17 83.34 283.787 82.9847 284.329 82.5541C284.892 82.1234 285.347 81.639 285.693 81.1007C286.062 80.5624 286.289 80.0241 286.376 79.4858V73.9629C286.116 73.3169 285.769 72.7248 285.336 72.1865C284.903 71.6267 284.405 71.153 283.842 70.7654C283.3 70.3778 282.704 70.0764 282.055 69.8611C281.426 69.6242 280.787 69.5058 280.138 69.5058C279.12 69.5058 278.21 69.7211 277.409 70.1517C276.607 70.5824 275.925 71.1422 275.362 71.8312C274.82 72.5202 274.398 73.3062 274.095 74.189C273.813 75.0502 273.672 75.9223 273.672 76.8051C273.672 77.774 273.846 78.6891 274.192 79.5504C274.539 80.4117 275.015 81.176 275.622 81.8435C276.228 82.511 276.943 83.0385 277.766 83.4261C278.589 83.8137 279.466 84.0075 280.398 84.0075Z" fill="white"/>
<path d="M157.091 40.9008C155.887 41.6403 154.59 42.2257 153.201 42.657C151.811 43.0576 150.329 43.2578 148.755 43.2578C146.347 43.2578 144.154 42.7803 142.178 41.8251C140.233 40.87 138.55 39.6222 137.13 38.0817C135.741 36.5411 134.66 34.7695 133.888 32.7668C133.116 30.7641 132.73 28.7152 132.73 26.6201C132.73 24.4326 133.132 22.3375 133.935 20.3348C134.768 18.3321 135.895 16.5605 137.315 15.0199C138.767 13.4794 140.48 12.2624 142.456 11.3689C144.432 10.4446 146.578 9.98242 148.894 9.98242C151.271 9.98242 153.432 10.4754 155.378 11.4613C157.354 12.4165 159.036 13.6797 160.426 15.251C161.815 16.8224 162.896 18.6094 163.668 20.6121C164.44 22.6148 164.825 24.6482 164.825 26.7126C164.825 28.8385 164.44 30.872 163.668 32.813C162.927 34.7541 161.877 36.4795 160.518 37.9892L165.011 43.0268H158.99L157.091 40.9008ZM148.801 37.6195C149.635 37.6195 150.407 37.5271 151.117 37.3422C151.858 37.1265 152.537 36.8492 153.155 36.5103L148.153 30.872H154.173L156.443 33.4139C157.06 32.4279 157.539 31.3495 157.878 30.1787C158.218 29.0079 158.388 27.8217 158.388 26.6201C158.388 25.2028 158.156 23.8318 157.693 22.5069C157.261 21.1821 156.628 20.0113 155.794 18.9945C154.992 17.9778 153.988 17.1613 152.784 16.5451C151.611 15.9289 150.283 15.6208 148.801 15.6208C147.257 15.6208 145.883 15.9443 144.679 16.5913C143.475 17.2075 142.472 18.0394 141.669 19.0869C140.866 20.1345 140.249 21.3207 139.816 22.6456C139.415 23.9396 139.214 25.2645 139.214 26.6201C139.214 28.0374 139.43 29.4085 139.863 30.7333C140.295 32.0582 140.912 33.229 141.715 34.2457C142.549 35.2625 143.552 36.079 144.726 36.6952C145.93 37.3114 147.288 37.6195 148.801 37.6195Z" fill="white"/>
<path d="M196.174 34.5693C196.174 35.9557 195.896 37.1727 195.34 38.2203C194.785 39.2679 194.013 40.146 193.025 40.8546C192.068 41.5632 190.941 42.1024 189.644 42.4722C188.378 42.8419 187.019 43.0268 185.568 43.0268H169.683V10.2135H187.282C188.424 10.2135 189.459 10.46 190.385 10.953C191.311 11.4459 192.098 12.0929 192.747 12.894C193.395 13.6643 193.889 14.5578 194.229 15.5745C194.599 16.5605 194.785 17.5618 194.785 18.5786C194.785 20.1807 194.383 21.6904 193.58 23.1077C192.778 24.4942 191.604 25.5264 190.061 26.2042C191.944 26.7588 193.426 27.7601 194.507 29.2082C195.618 30.6255 196.174 32.4125 196.174 34.5693ZM189.736 33.3676C189.736 32.7822 189.628 32.2276 189.412 31.7039C189.227 31.1493 188.965 30.6717 188.625 30.2712C188.285 29.8706 187.884 29.5625 187.421 29.3469C186.958 29.1004 186.448 28.9771 185.893 28.9771H176.074V37.6195H185.568C186.155 37.6195 186.695 37.5117 187.189 37.296C187.714 37.0803 188.162 36.7876 188.532 36.4179C188.903 36.0173 189.196 35.5552 189.412 35.0314C189.628 34.5076 189.736 33.953 189.736 33.3676ZM176.074 15.667V23.9396H184.596C185.676 23.9396 186.587 23.5699 187.328 22.8304C188.1 22.091 188.486 21.0742 188.486 19.7802C188.486 18.5169 188.131 17.5156 187.421 16.7762C186.742 16.0367 185.893 15.667 184.874 15.667H176.074Z" fill="white"/>
<defs>
<filter id="filter0_f" x="44.7866" y="56.0391" width="54.2656" height="54.2161" filterUnits="userSpaceOnUse" color-interpolation-filters="sRGB">
<feFlood flood-opacity="0" result="BackgroundImageFix"/>
<feBlend mode="normal" in="SourceGraphic" in2="BackgroundImageFix" result="shape"/>
<feGaussianBlur stdDeviation="10" result="effect1_foregroundBlur"/>
</filter>
</defs>
</svg>
